<svg width="428" height="96" viewBox="0 0 428 96" fill="none" xmlns="http://www.w3.org/2000/svg">
<path d="M22.806 24.9632C22.806 24.9632 44.7788 33.4996 55.8965 70.2754C55.8965 70.2754 55.9307 70.1601 55.9878 69.9524C55.8965 65.8572 55.8052 60.9892 55.691 56.2019C55.4399 56.4441 55.2116 56.6518 55.0062 56.7787C55.0176 56.7671 48.8766 33.938 22.806 24.9632ZM57.426 74.2783C57.426 74.2783 56.9124 44.5393 56.0563 29.1161C55.7824 24.248 54.7779 19.5645 53.5337 15.4117C51.365 25.1593 50.6915 35.23 51.0682 45.3583C50.6573 44.7123 50.2235 44.0663 49.7784 43.4434C48.8424 42.1053 47.8379 40.8133 46.7992 39.5905C48.3173 30.1428 50.9198 21.8371 53.4538 15.1925C50.7486 6.31002 46.959 0 46.959 0C56.2161 3.64528 59.9943 18.2033 59.9943 18.2033C59.9943 18.2033 63.7725 3.64528 73.0296 0C73.0296 0 69.24 6.31002 66.5348 15.181C69.0688 21.8255 71.6713 30.1428 73.1894 39.5789C72.1507 40.8133 71.1576 42.0937 70.2102 43.4319C69.765 44.0663 69.3427 44.7008 68.9204 45.3468C69.3085 35.23 68.635 25.1593 66.4549 15.4001C65.2107 19.5415 64.2062 24.2365 63.9323 29.1045C63.0762 44.5278 62.5625 74.2668 62.5625 74.2668L59.9943 79.4809L57.426 74.2783ZM120 28.5624C120 28.5624 106.063 48.4384 89.1239 60.5162L98.5865 65.0497C98.5865 65.0497 82.1497 85.1795 59.9943 96C57.2891 86.4946 54.892 76.5508 53.2484 66.4456C51.2508 60.6777 48.7511 54.9906 45.6692 49.6842C45.087 58.7859 45.692 68.6373 48.2945 78.8926C48.2945 78.8926 37.7133 72.4787 34.1063 68.199L43.9456 62.2812C43.9456 62.2812 14.6904 44.2855 0 28.5624C0 28.5624 13.937 48.4384 30.8761 60.5162L21.4135 65.0497C21.4135 65.0497 37.8503 85.1795 60.0057 96C62.7109 86.4946 65.108 76.5393 66.7516 66.434C68.7492 60.6662 71.2489 54.9791 74.3308 49.6727C74.913 58.7743 74.308 68.6258 71.7055 78.881C71.7055 78.881 82.2867 72.4672 85.8936 68.1875L76.0544 62.2696C76.0544 62.2812 105.31 44.297 120 28.5624ZM97.1825 24.9632C97.1825 24.9632 75.2097 33.4996 64.0921 70.2754C64.0921 70.2754 64.0578 70.1601 64.0008 69.9524C64.0921 65.8688 64.1834 60.9892 64.2975 56.2019C64.5486 56.4441 64.7769 56.6518 64.9824 56.7787C64.971 56.7671 71.112 33.938 97.1825 24.9632Z" fill="url(#paint0_radial_172_147)"/>
<path d="M143.887 55.4619C142.187 55.4619 140.759 54.8606 139.569 53.6408C138.396 52.4382 137.801 50.9607 137.801 49.2427V29.0215H141.558V49.2083C141.558 49.844 141.779 50.3594 142.204 50.8061C142.646 51.2356 143.156 51.4589 143.768 51.4589C144.379 51.4589 144.906 51.2356 145.331 50.8061C145.756 50.3594 145.977 49.844 145.977 49.2083V29.0215H149.989V49.2427C149.989 50.9951 149.394 52.4726 148.204 53.6752C146.997 54.8606 145.569 55.4619 143.887 55.4619Z" fill="url(#paint1_linear_172_147)"/>
<path d="M163.893 55.1699H153.406V29.0215H157.247V51.2528H163.893V55.1699Z" fill="url(#paint2_linear_172_147)"/>
<path d="M166.834 32.9558H162.738V29.0215H174.738V32.9558H170.676V55.1699H166.834V32.9558Z" fill="url(#paint3_linear_172_147)"/>
<path d="M181.691 55.1699H177.832V29.0215H181.691V55.1699Z" fill="url(#paint4_linear_172_147)"/>
<path d="M188.966 55.1695H185.124V28.9868H190.632L194.218 47.782L197.652 28.9868H202.955V55.1695H199.114V38.728L195.782 55.1695H192.688L188.966 38.7624V55.1695Z" fill="url(#paint5_linear_172_147)"/>
<path d="M211.115 49.1568L210.18 55.1699H206.168L210.503 29.0215H215.789L220.056 55.1699H216.01L215.109 49.1568H211.115ZM213.12 35.0002L211.693 45.3084H214.548L213.12 35.0002Z" fill="url(#paint6_linear_172_147)"/>
<path d="M223.795 32.9558H219.699V29.0215H231.699V32.9558H227.637V55.1699H223.795V32.9558Z" fill="url(#paint7_linear_172_147)"/>
<path d="M234.793 55.1695V28.9868H245.74V32.9383H238.635V40.1025H243.819V44.0711H238.635V51.2181H245.74V55.1695H234.793Z" fill="url(#paint8_linear_172_147)"/>
<path d="M263.231 29.0215C265.101 29.0215 266.58 29.6228 267.685 30.8426C268.705 31.9937 269.231 33.4712 269.231 35.2579V39.0548C269.231 40.7728 268.654 42.2503 267.481 43.4701C266.308 44.6899 264.897 45.3084 263.248 45.3084H261.038V55.1527H257.214V29.0215H263.231ZM265.526 35.3266C265.526 34.6394 265.322 34.0897 264.931 33.6773C264.54 33.265 263.996 33.0417 263.35 33.0417H261.038V41.4085H263.35C263.962 41.4085 264.472 41.1851 264.897 40.7384C265.322 40.2917 265.526 39.7592 265.526 39.1235V35.3266Z" fill="url(#paint9_linear_172_147)"/>
<path d="M272.291 55.1695V28.9868H283.187V32.9383H276.116V40.1025H281.283V44.0711H276.116V51.2181H283.187V55.1695H272.291Z" fill="url(#paint10_linear_172_147)"/>
<path d="M291.856 29.0215C293.998 29.0215 295.562 29.6228 296.565 30.8426C297.449 31.9078 297.873 33.3681 297.873 35.2579V39.0548C297.873 40.8931 297.194 42.4736 295.817 43.745L298.655 55.1699H294.525L292.213 45.3256C292.111 45.3256 291.992 45.3256 291.873 45.3256H289.663V55.1699H285.839V29.0215H291.856ZM294.151 35.3266C294.151 33.8148 293.42 33.0417 291.958 33.0417H289.646V41.4085H291.958C292.57 41.4085 293.08 41.1851 293.505 40.7384C293.93 40.2917 294.134 39.7592 294.134 39.1235V35.3266H294.151Z" fill="url(#paint11_linear_172_147)"/>
<path d="M305.778 55.1695H301.953V28.9868H312.849V32.9383H305.778V40.1025H310.945V44.0711H305.778V55.1695Z" fill="url(#paint12_linear_172_147)"/>
<path d="M321.535 28.6777C323.235 28.6777 324.663 29.2962 325.836 30.516C327.026 31.7358 327.604 33.2133 327.604 34.9485V49.2253C327.604 50.9605 327.009 52.4552 325.819 53.6579C324.629 54.8777 323.201 55.479 321.518 55.479C319.835 55.479 318.408 54.8605 317.218 53.6407C316.045 52.4209 315.45 50.9434 315.45 49.2082V34.9314C315.45 33.1961 316.045 31.7186 317.235 30.4988C318.459 29.279 319.886 28.6777 321.535 28.6777ZM323.626 34.8626C323.626 34.227 323.405 33.7116 322.997 33.2649C322.572 32.8354 322.045 32.612 321.45 32.612C320.838 32.612 320.328 32.8354 319.886 33.2649C319.461 33.7116 319.24 34.227 319.24 34.8626V49.191C319.24 49.8095 319.461 50.3421 319.886 50.7887C320.311 51.2182 320.838 51.4416 321.45 51.4416C322.062 51.4416 322.572 51.2182 322.997 50.7887C323.422 50.3421 323.626 49.8266 323.626 49.191V34.8626Z" fill="url(#paint13_linear_172_147)"/>
<path d="M337.038 29.0215C339.179 29.0215 340.743 29.6228 341.746 30.8426C342.63 31.9078 343.055 33.3681 343.055 35.2579V39.0548C343.055 40.8931 342.375 42.4736 340.998 43.745L343.837 55.1699H339.689L337.378 45.3256C337.276 45.3256 337.157 45.3256 337.038 45.3256H334.828V55.1699H331.003V29.0215H337.038ZM339.332 35.3266C339.332 33.8148 338.601 33.0417 337.14 33.0417H334.828V41.4085H337.14C337.751 41.4085 338.261 41.1851 338.686 40.7384C339.111 40.2917 339.315 39.7592 339.315 39.1235V35.3266H339.332Z" fill="url(#paint14_linear_172_147)"/>
<path d="M350.959 55.1695H347.134V28.9868H352.625L356.194 47.782L359.611 28.9868H364.897V55.1695H361.073V38.728L357.741 55.1695H354.664L350.959 38.7624V55.1695Z" fill="url(#paint15_linear_172_147)"/>
<path d="M373.023 49.1568L372.088 55.1699H368.093L372.411 29.0215H377.68L381.93 55.1699H377.901L377 49.1568H373.023ZM375.028 35.0002L373.618 45.3084H376.456L375.028 35.0002Z" fill="url(#paint16_linear_172_147)"/>
<path d="M389.443 28.9868L394.525 46.5622V28.9868H398.367V55.1695H394.253L388.984 38.4016V55.1695H385.159V28.9868H389.443Z" fill="url(#paint17_linear_172_147)"/>
<path d="M407.801 55.4964C406.118 55.4964 404.674 54.895 403.501 53.6752C402.311 52.4554 401.733 50.9779 401.733 49.2599V34.9831C401.733 33.2479 402.328 31.7704 403.518 30.5506C404.708 29.3308 406.135 28.7295 407.818 28.7295C409.501 28.7295 410.929 29.348 412.119 30.5678C413.292 31.7876 413.887 33.2651 413.887 34.9831V37.9725H409.926V34.8972C409.926 34.2787 409.705 33.729 409.28 33.2823C408.855 32.8356 408.328 32.6122 407.716 32.6122C407.104 32.6122 406.594 32.8356 406.169 33.2823C405.744 33.729 405.524 34.2615 405.524 34.8972V49.2256C405.524 49.8441 405.744 50.3766 406.169 50.8233C406.594 51.2528 407.104 51.4762 407.716 51.4762C408.328 51.4762 408.855 51.2528 409.28 50.8233C409.705 50.3766 409.926 49.8612 409.926 49.2256V45.6177H413.887V49.2771C413.887 51.0123 413.292 52.4898 412.102 53.6924C410.878 54.895 409.467 55.4964 407.801 55.4964Z" fill="url(#paint18_linear_172_147)"/>
<path d="M416.997 55.1695V28.9868H427.893V32.9383H420.822V40.1025H425.989V44.0711H420.822V51.2181H427.893V55.1695H416.997Z" fill="url(#paint19_linear_172_147)"/>
<path d="M211.371 73.489L210.865 76.7029H208.682L211.039 62.7119H213.918L216.244 76.7029H214.045L213.554 73.489H211.371ZM212.463 65.9258L211.687 71.4423H213.238L212.463 65.9258Z" fill="url(#paint20_linear_172_147)"/>
<path d="M235.782 76.8946C234.864 76.8946 234.073 76.5748 233.425 75.9192C232.776 75.2637 232.459 74.4802 232.459 73.5528V65.9097C232.459 64.9823 232.776 64.1828 233.425 63.5432C234.073 62.8877 234.848 62.5679 235.766 62.5679C236.683 62.5679 237.474 62.9036 238.107 63.5592C238.756 64.2148 239.072 64.9983 239.072 65.9257V67.5247H236.905V65.8777C236.905 65.5419 236.794 65.2541 236.557 65.0143C236.32 64.7744 236.035 64.6625 235.703 64.6625C235.37 64.6625 235.086 64.7744 234.864 65.0143C234.627 65.2541 234.516 65.5419 234.516 65.8777V73.5368C234.516 73.8726 234.627 74.1604 234.864 74.3842C235.101 74.6241 235.37 74.736 235.703 74.736C236.035 74.736 236.32 74.6241 236.557 74.3842C236.794 74.1444 236.905 73.8726 236.905 73.5368V71.602H239.072V73.5528C239.072 74.4802 238.756 75.2797 238.107 75.9192C237.459 76.5748 236.683 76.8946 235.782 76.8946Z" fill="url(#paint21_linear_172_147)"/>
<path d="M257.74 73.489L257.234 76.7029H255.051L257.408 62.7119H260.287L262.613 76.7029H260.414L259.923 73.489H257.74ZM258.832 65.9258L258.057 71.4423H259.607L258.832 65.9258Z" fill="url(#paint22_linear_172_147)"/>
<path d="M285.711 73.3609C285.711 74.2883 285.394 75.0718 284.746 75.7274C284.097 76.383 283.338 76.7028 282.42 76.7028H279.145V62.6958H282.436C283.353 62.6958 284.129 63.0316 284.761 63.6872C285.394 64.3427 285.726 65.1262 285.726 66.0376V73.3609H285.711ZM281.234 74.6241H282.499C282.831 74.6241 283.116 74.4962 283.338 74.2563C283.559 74.0165 283.686 73.7287 283.686 73.4089V66.0856C283.686 65.7498 283.575 65.462 283.338 65.2222C283.1 64.9823 282.831 64.8704 282.499 64.8704H281.234V74.6241Z" fill="url(#paint23_linear_172_147)"/>
<path d="M302.338 76.7187V62.6958H308.286V64.8064H304.426V68.644H307.242V70.7706H304.426V74.6081H308.286V76.7187H302.338Z" fill="url(#paint24_linear_172_147)"/>
<path d="M326.59 76.7187H324.502V62.6958H327.492L329.438 72.7533L331.304 62.6958H334.2V76.7187H332.111V67.9084L330.292 76.7187H328.615L326.59 67.9404V76.7187Z" fill="url(#paint25_linear_172_147)"/>
<path d="M353.453 70.8505L350.653 62.6958H352.962L354.497 67.7325L356.047 62.6958H358.357L355.541 70.8505V76.7188H353.453V70.8505Z" fill="url(#paint26_linear_172_147)"/>
<path d="M154.402 70.0032L174.494 69.5875L196.231 69.1558V70.0352V70.9146L174.494 70.4829L154.402 70.0672V70.0032Z" fill="white"/>
<path d="M411.292 70.0027L391.2 69.587L369.479 69.1553V70.0347V70.9141L391.2 70.4824L411.292 70.0667V70.0027Z" fill="white"/>
<defs>
<radialGradient id="paint0_radial_172_147" cx="0" cy="0" r="1" gradientUnits="userSpaceOnUse" gradientTransform="translate(59.9967 5.13765) scale(114.947 116.168)">
<stop stop-color="#FEF200"/>
<stop offset="0.2314" stop-color="#9E9300"/>
<stop offset="0.302" stop-color="#867E01"/>
<stop offset="0.3804" stop-color="#FEF200"/>
<stop offset="0.502" stop-color="#FEF200"/>
<stop offset="0.5412" stop-color="#E3D302"/>
<stop offset="0.6118" stop-color="#5C6100"/>
<stop offset="0.6706" stop-color="#A09000"/>
<stop offset="0.7294" stop-color="#FEF200"/>
<stop offset="0.7608" stop-color="#FEF200"/>
<stop offset="1" stop-color="#FEF200"/>
</radialGradient>
<linearGradient id="paint1_linear_172_147" x1="143.895" y1="55.2548" x2="143.895" y2="29.2976" gradientUnits="userSpaceOnUse">
<stop stop-color="#ADB2BD"/>
<stop offset="0.451" stop-color="white"/>
<stop offset="0.6118" stop-color="white"/>
<stop offset="1" stop-color="#ADB2BD"/>
</linearGradient>
<linearGradient id="paint2_linear_172_147" x1="158.65" y1="54.9651" x2="158.65" y2="29.2945" gradientUnits="userSpaceOnUse">
<stop stop-color="#ADB2BD"/>
<stop offset="0.451" stop-color="white"/>
<stop offset="0.6118" stop-color="white"/>
<stop offset="1" stop-color="#ADB2BD"/>
</linearGradient>
<linearGradient id="paint3_linear_172_147" x1="168.738" y1="54.9651" x2="168.738" y2="29.2945" gradientUnits="userSpaceOnUse">
<stop stop-color="#ADB2BD"/>
<stop offset="0.451" stop-color="white"/>
<stop offset="0.6118" stop-color="white"/>
<stop offset="1" stop-color="#ADB2BD"/>
</linearGradient>
<linearGradient id="paint4_linear_172_147" x1="179.761" y1="54.9651" x2="179.761" y2="29.2945" gradientUnits="userSpaceOnUse">
<stop stop-color="#ADB2BD"/>
<stop offset="0.451" stop-color="white"/>
<stop offset="0.6118" stop-color="white"/>
<stop offset="1" stop-color="#ADB2BD"/>
</linearGradient>
<linearGradient id="paint5_linear_172_147" x1="194.04" y1="54.9645" x2="194.04" y2="29.2602" gradientUnits="userSpaceOnUse">
<stop stop-color="#ADB2BD"/>
<stop offset="0.451" stop-color="white"/>
<stop offset="0.6118" stop-color="white"/>
<stop offset="1" stop-color="#ADB2BD"/>
</linearGradient>
<linearGradient id="paint6_linear_172_147" x1="213.112" y1="54.9651" x2="213.112" y2="29.2945" gradientUnits="userSpaceOnUse">
<stop stop-color="#ADB2BD"/>
<stop offset="0.451" stop-color="white"/>
<stop offset="0.6118" stop-color="white"/>
<stop offset="1" stop-color="#ADB2BD"/>
</linearGradient>
<linearGradient id="paint7_linear_172_147" x1="225.699" y1="54.9651" x2="225.699" y2="29.2945" gradientUnits="userSpaceOnUse">
<stop stop-color="#ADB2BD"/>
<stop offset="0.451" stop-color="white"/>
<stop offset="0.6118" stop-color="white"/>
<stop offset="1" stop-color="#ADB2BD"/>
</linearGradient>
<linearGradient id="paint8_linear_172_147" x1="240.267" y1="54.9645" x2="240.267" y2="29.2602" gradientUnits="userSpaceOnUse">
<stop stop-color="#ADB2BD"/>
<stop offset="0.451" stop-color="white"/>
<stop offset="0.6118" stop-color="white"/>
<stop offset="1" stop-color="#ADB2BD"/>
</linearGradient>
<linearGradient id="paint9_linear_172_147" x1="263.207" y1="55.014" x2="263.207" y2="31.2682" gradientUnits="userSpaceOnUse">
<stop stop-color="#FFCC00"/>
<stop offset="0.5294" stop-color="#FEF200"/>
<stop offset="1" stop-color="#FFCC00"/>
</linearGradient>
<linearGradient id="paint10_linear_172_147" x1="277.725" y1="55.0306" x2="277.725" y2="31.238" gradientUnits="userSpaceOnUse">
<stop stop-color="#FFCC00"/>
<stop offset="0.5294" stop-color="#FEF200"/>
<stop offset="1" stop-color="#FFCC00"/>
</linearGradient>
<linearGradient id="paint11_linear_172_147" x1="292.231" y1="55.0311" x2="292.231" y2="31.2697" gradientUnits="userSpaceOnUse">
<stop stop-color="#FFCC00"/>
<stop offset="0.5294" stop-color="#FEF200"/>
<stop offset="1" stop-color="#FFCC00"/>
</linearGradient>
<linearGradient id="paint12_linear_172_147" x1="307.387" y1="55.0306" x2="307.387" y2="31.238" gradientUnits="userSpaceOnUse">
<stop stop-color="#FFCC00"/>
<stop offset="0.5294" stop-color="#FEF200"/>
<stop offset="1" stop-color="#FFCC00"/>
</linearGradient>
<linearGradient id="paint13_linear_172_147" x1="321.511" y1="55.3367" x2="321.511" y2="30.9821" gradientUnits="userSpaceOnUse">
<stop stop-color="#FFCC00"/>
<stop offset="0.5294" stop-color="#FEF200"/>
<stop offset="1" stop-color="#FFCC00"/>
</linearGradient>
<linearGradient id="paint14_linear_172_147" x1="337.404" y1="55.0311" x2="337.404" y2="31.2697" gradientUnits="userSpaceOnUse">
<stop stop-color="#FFCC00"/>
<stop offset="0.5294" stop-color="#FEF200"/>
<stop offset="1" stop-color="#FFCC00"/>
</linearGradient>
<linearGradient id="paint15_linear_172_147" x1="355.993" y1="55.0306" x2="355.993" y2="31.238" gradientUnits="userSpaceOnUse">
<stop stop-color="#FFCC00"/>
<stop offset="0.5294" stop-color="#FEF200"/>
<stop offset="1" stop-color="#FFCC00"/>
</linearGradient>
<linearGradient id="paint16_linear_172_147" x1="374.994" y1="55.0311" x2="374.994" y2="31.2697" gradientUnits="userSpaceOnUse">
<stop stop-color="#FFCC00"/>
<stop offset="0.5294" stop-color="#FEF200"/>
<stop offset="1" stop-color="#FFCC00"/>
</linearGradient>
<linearGradient id="paint17_linear_172_147" x1="391.746" y1="55.0306" x2="391.746" y2="31.238" gradientUnits="userSpaceOnUse">
<stop stop-color="#FFCC00"/>
<stop offset="0.5294" stop-color="#FEF200"/>
<stop offset="1" stop-color="#FFCC00"/>
</linearGradient>
<linearGradient id="paint18_linear_172_147" x1="407.794" y1="55.3543" x2="407.794" y2="31.0309" gradientUnits="userSpaceOnUse">
<stop stop-color="#FFCC00"/>
<stop offset="0.5294" stop-color="#FEF200"/>
<stop offset="1" stop-color="#FFCC00"/>
</linearGradient>
<linearGradient id="paint19_linear_172_147" x1="422.431" y1="55.0306" x2="422.431" y2="31.238" gradientUnits="userSpaceOnUse">
<stop stop-color="#FFCC00"/>
<stop offset="0.5294" stop-color="#FEF200"/>
<stop offset="1" stop-color="#FFCC00"/>
</linearGradient>
<linearGradient id="paint20_linear_172_147" x1="212.474" y1="76.6415" x2="212.474" y2="62.8005" gradientUnits="userSpaceOnUse">
<stop stop-color="#ADB2BD"/>
<stop offset="0.451" stop-color="white"/>
<stop offset="0.6118" stop-color="white"/>
<stop offset="1" stop-color="#ADB2BD"/>
</linearGradient>
<linearGradient id="paint21_linear_172_147" x1="235.776" y1="76.8318" x2="235.776" y2="62.6586" gradientUnits="userSpaceOnUse">
<stop stop-color="#ADB2BD"/>
<stop offset="0.451" stop-color="white"/>
<stop offset="0.6118" stop-color="white"/>
<stop offset="1" stop-color="#ADB2BD"/>
</linearGradient>
<linearGradient id="paint22_linear_172_147" x1="258.843" y1="76.6415" x2="258.843" y2="62.8005" gradientUnits="userSpaceOnUse">
<stop stop-color="#ADB2BD"/>
<stop offset="0.451" stop-color="white"/>
<stop offset="0.6118" stop-color="white"/>
<stop offset="1" stop-color="#ADB2BD"/>
</linearGradient>
<linearGradient id="paint23_linear_172_147" x1="282.446" y1="76.6413" x2="282.446" y2="62.7845" gradientUnits="userSpaceOnUse">
<stop stop-color="#ADB2BD"/>
<stop offset="0.451" stop-color="white"/>
<stop offset="0.6118" stop-color="white"/>
<stop offset="1" stop-color="#ADB2BD"/>
</linearGradient>
<linearGradient id="paint24_linear_172_147" x1="305.32" y1="76.6573" x2="305.32" y2="62.7846" gradientUnits="userSpaceOnUse">
<stop stop-color="#ADB2BD"/>
<stop offset="0.451" stop-color="white"/>
<stop offset="0.6118" stop-color="white"/>
<stop offset="1" stop-color="#ADB2BD"/>
</linearGradient>
<linearGradient id="paint25_linear_172_147" x1="329.365" y1="76.6573" x2="329.365" y2="62.7846" gradientUnits="userSpaceOnUse">
<stop stop-color="#ADB2BD"/>
<stop offset="0.451" stop-color="white"/>
<stop offset="0.6118" stop-color="white"/>
<stop offset="1" stop-color="#ADB2BD"/>
</linearGradient>
<linearGradient id="paint26_linear_172_147" x1="354.516" y1="76.6573" x2="354.516" y2="62.7846" gradientUnits="userSpaceOnUse">
<stop stop-color="#ADB2BD"/>
<stop offset="0.451" stop-color="white"/>
<stop offset="0.6118" stop-color="white"/>
<stop offset="1" stop-color="#ADB2BD"/>
</linearGradient>
</defs>
</svg>
