<svg width="423" height="96" viewBox="0 0 423 96" fill="none" xmlns="http://www.w3.org/2000/svg">
<path d="M22.806 24.9632C22.806 24.9632 44.7788 33.4996 55.8965 70.2754C55.8965 70.2754 55.9307 70.1601 55.9878 69.9524C55.8965 65.8572 55.8052 60.9892 55.691 56.2019C55.4399 56.4441 55.2116 56.6518 55.0062 56.7787C55.0176 56.7671 48.8766 33.938 22.806 24.9632ZM57.426 74.2783C57.426 74.2783 56.9124 44.5393 56.0563 29.1161C55.7824 24.248 54.7779 19.5645 53.5337 15.4117C51.365 25.1593 50.6915 35.23 51.0682 45.3583C50.6573 44.7123 50.2235 44.0663 49.7784 43.4434C48.8424 42.1053 47.8379 40.8133 46.7992 39.5905C48.3173 30.1428 50.9198 21.8371 53.4538 15.1925C50.7486 6.31002 46.959 0 46.959 0C56.2161 3.64528 59.9943 18.2033 59.9943 18.2033C59.9943 18.2033 63.7725 3.64528 73.0296 0C73.0296 0 69.24 6.31002 66.5348 15.181C69.0688 21.8255 71.6713 30.1428 73.1894 39.5789C72.1507 40.8133 71.1576 42.0937 70.2102 43.4319C69.765 44.0663 69.3427 44.7008 68.9204 45.3468C69.3085 35.23 68.635 25.1593 66.4549 15.4001C65.2107 19.5415 64.2062 24.2365 63.9323 29.1045C63.0762 44.5278 62.5625 74.2668 62.5625 74.2668L59.9943 79.4809L57.426 74.2783ZM120 28.5624C120 28.5624 106.063 48.4384 89.1239 60.5162L98.5865 65.0497C98.5865 65.0497 82.1497 85.1795 59.9943 96C57.2891 86.4946 54.892 76.5508 53.2484 66.4456C51.2508 60.6777 48.7511 54.9906 45.6692 49.6842C45.087 58.7859 45.692 68.6373 48.2945 78.8926C48.2945 78.8926 37.7133 72.4787 34.1063 68.199L43.9456 62.2812C43.9456 62.2812 14.6904 44.2855 0 28.5624C0 28.5624 13.937 48.4384 30.8761 60.5162L21.4135 65.0497C21.4135 65.0497 37.8503 85.1795 60.0057 96C62.7109 86.4946 65.108 76.5393 66.7516 66.434C68.7492 60.6662 71.2489 54.9791 74.3308 49.6727C74.913 58.7743 74.308 68.6258 71.7055 78.881C71.7055 78.881 82.2867 72.4672 85.8936 68.1875L76.0544 62.2696C76.0544 62.2812 105.31 44.297 120 28.5624ZM97.1825 24.9632C97.1825 24.9632 75.2097 33.4996 64.0921 70.2754C64.0921 70.2754 64.0578 70.1601 64.0008 69.9524C64.0921 65.8688 64.1834 60.9892 64.2975 56.2019C64.5486 56.4441 64.7769 56.6518 64.9824 56.7787C64.971 56.7671 71.112 33.938 97.1825 24.9632Z" fill="white"/>
<path d="M138.29 56.0957C136.59 56.0957 135.162 55.4944 133.972 54.2746C132.8 53.072 132.205 51.5945 132.205 49.8765V29.6553H135.961V49.8421C135.961 50.4778 136.182 50.9932 136.607 51.4399C137.049 51.8694 137.559 52.0927 138.171 52.0927C138.783 52.0927 139.31 51.8694 139.735 51.4399C140.16 50.9932 140.381 50.4778 140.381 49.8421V29.6553H144.392V49.8765C144.392 51.6289 143.797 53.1063 142.608 54.309C141.401 55.4944 139.973 56.0957 138.29 56.0957Z" fill="white"/>
<path d="M158.297 55.8037H147.809V29.6553H151.651V51.8866H158.297V55.8037Z" fill="white"/>
<path d="M161.238 33.5896H157.141V29.6553H169.142V33.5896H165.079V55.8037H161.238V33.5896Z" fill="white"/>
<path d="M176.094 55.8037H172.235V29.6553H176.094V55.8037Z" fill="white"/>
<path d="M183.369 55.8033H179.528V29.6206H185.035L188.622 48.4158L192.056 29.6206H197.359V55.8033H193.517V39.3618L190.186 55.8033H187.092L183.369 39.3962V55.8033Z" fill="white"/>
<path d="M205.518 49.7906L204.583 55.8037H200.572L204.906 29.6553H210.193L214.459 55.8037H210.414L209.513 49.7906H205.518ZM207.524 35.634L206.096 45.9422H208.952L207.524 35.634Z" fill="white"/>
<path d="M218.199 33.5896H214.102V29.6553H226.103V33.5896H222.04V55.8037H218.199V33.5896Z" fill="white"/>
<path d="M229.197 55.8033V29.6206H240.144V33.5721H233.038V40.7362H238.223V44.7049H233.038V51.8519H240.144V55.8033H229.197Z" fill="white"/>
<path d="M257.635 29.6553C259.504 29.6553 260.983 30.2566 262.088 31.4764C263.108 32.6275 263.635 34.105 263.635 35.8917V39.6886C263.635 41.4066 263.057 42.8841 261.884 44.1039C260.711 45.3237 259.3 45.9422 257.652 45.9422H255.442V55.7865H251.617V29.6553H257.635ZM259.929 35.9604C259.929 35.2732 259.725 34.7235 259.334 34.3111C258.943 33.8988 258.399 33.6755 257.754 33.6755H255.442V42.0422H257.754C258.365 42.0422 258.875 41.8189 259.3 41.3722C259.725 40.9255 259.929 40.393 259.929 39.7573V35.9604Z" fill="white"/>
<path d="M266.695 55.8033V29.6206H277.591V33.5721H270.519V40.7362H275.687V44.7049H270.519V51.8519H277.591V55.8033H266.695Z" fill="white"/>
<path d="M286.26 29.6553C288.401 29.6553 289.965 30.2566 290.968 31.4764C291.852 32.5416 292.277 34.0019 292.277 35.8917V39.6886C292.277 41.5268 291.597 43.1074 290.22 44.3788L293.059 55.8037H288.928L286.617 45.9593C286.515 45.9593 286.396 45.9593 286.277 45.9593H284.067V55.8037H280.242V29.6553H286.26ZM288.554 35.9604C288.554 34.4486 287.823 33.6755 286.362 33.6755H284.05V42.0422H286.362C286.973 42.0422 287.483 41.8189 287.908 41.3722C288.333 40.9255 288.537 40.393 288.537 39.7573V35.9604H288.554Z" fill="white"/>
<path d="M300.181 55.8033H296.357V29.6206H307.252V33.5721H300.181V40.7362H305.349V44.7049H300.181V55.8033Z" fill="white"/>
<path d="M315.939 29.3115C317.638 29.3115 319.066 29.93 320.239 31.1498C321.429 32.3696 322.007 33.8471 322.007 35.5823V49.8591C322.007 51.5943 321.412 53.089 320.222 54.2916C319.032 55.5114 317.604 56.1127 315.922 56.1127C314.239 56.1127 312.811 55.4943 311.621 54.2745C310.448 53.0547 309.853 51.5772 309.853 49.8419V35.5651C309.853 33.8299 310.448 32.3524 311.638 31.1326C312.862 29.9128 314.29 29.3115 315.939 29.3115ZM318.029 35.4964C318.029 34.8607 317.808 34.3453 317.4 33.8987C316.976 33.4691 316.449 33.2458 315.854 33.2458C315.242 33.2458 314.732 33.4691 314.29 33.8987C313.865 34.3453 313.644 34.8607 313.644 35.4964V49.8248C313.644 50.4433 313.865 50.9758 314.29 51.4225C314.715 51.852 315.242 52.0754 315.854 52.0754C316.466 52.0754 316.976 51.852 317.4 51.4225C317.825 50.9758 318.029 50.4604 318.029 49.8248V35.4964Z" fill="white"/>
<path d="M331.441 29.6553C333.583 29.6553 335.147 30.2566 336.15 31.4764C337.034 32.5416 337.458 34.0019 337.458 35.8917V39.6886C337.458 41.5268 336.779 43.1074 335.402 44.3788L338.24 55.8037H334.093L331.781 45.9593C331.679 45.9593 331.56 45.9593 331.441 45.9593H329.231V55.8037H325.407V29.6553H331.441ZM333.736 35.9604C333.736 34.4486 333.005 33.6755 331.543 33.6755H329.231V42.0422H331.543C332.155 42.0422 332.665 41.8189 333.09 41.3722C333.515 40.9255 333.719 40.393 333.719 39.7573V35.9604H333.736Z" fill="white"/>
<path d="M345.362 55.8033H341.538V29.6206H347.028L350.598 48.4158L354.015 29.6206H359.301V55.8033H355.476V39.3618L352.145 55.8033H349.068L345.362 39.3962V55.8033Z" fill="white"/>
<path d="M367.426 49.7906L366.491 55.8037H362.497L366.814 29.6553H372.084L376.333 55.8037H372.305L371.404 49.7906H367.426ZM369.432 35.634L368.021 45.9422H370.86L369.432 35.634Z" fill="white"/>
<path d="M383.846 29.6206L388.929 47.196V29.6206H392.77V55.8033H388.657L383.387 39.0354V55.8033H379.563V29.6206H383.846Z" fill="white"/>
<path d="M402.205 56.1302C400.522 56.1302 399.077 55.5288 397.904 54.309C396.714 53.0892 396.136 51.6117 396.136 49.8937V35.6169C396.136 33.8817 396.731 32.4042 397.921 31.1844C399.111 29.9646 400.539 29.3633 402.222 29.3633C403.905 29.3633 405.332 29.9818 406.522 31.2016C407.695 32.4214 408.29 33.8989 408.29 35.6169V38.6063H404.329V35.531C404.329 34.9125 404.109 34.3627 403.684 33.9161C403.259 33.4694 402.732 33.246 402.12 33.246C401.508 33.246 400.998 33.4694 400.573 33.9161C400.148 34.3627 399.927 34.8953 399.927 35.531V49.8593C399.927 50.4778 400.148 51.0104 400.573 51.4571C400.998 51.8866 401.508 52.11 402.12 52.11C402.732 52.11 403.259 51.8866 403.684 51.4571C404.109 51.0104 404.329 50.495 404.329 49.8593V46.2515H408.29V49.9109C408.29 51.6461 407.695 53.1236 406.505 54.3262C405.281 55.5288 403.871 56.1302 402.205 56.1302Z" fill="white"/>
<path d="M411.401 55.8033V29.6206H422.296V33.5721H415.225V40.7362H420.393V44.7049H415.225V51.8519H422.296V55.8033H411.401Z" fill="white"/>
<path d="M205.775 74.1227L205.268 77.3367H203.085L205.442 63.3457H208.322L210.647 77.3367H208.448L207.958 74.1227H205.775ZM206.866 66.5596L206.091 72.0761H207.641L206.866 66.5596Z" fill="white"/>
<path d="M230.185 77.5284C229.268 77.5284 228.477 77.2086 227.828 76.553C227.179 75.8975 226.863 75.114 226.863 74.1866V66.5435C226.863 65.6161 227.179 64.8166 227.828 64.177C228.477 63.5215 229.252 63.2017 230.169 63.2017C231.087 63.2017 231.878 63.5374 232.511 64.193C233.159 64.8486 233.476 65.6321 233.476 66.5595V68.1585H231.308V66.5115C231.308 66.1757 231.198 65.8879 230.96 65.6481C230.723 65.4082 230.438 65.2963 230.106 65.2963C229.774 65.2963 229.489 65.4082 229.268 65.6481C229.03 65.8879 228.92 66.1757 228.92 66.5115V74.1706C228.92 74.5064 229.03 74.7942 229.268 75.018C229.505 75.2579 229.774 75.3698 230.106 75.3698C230.438 75.3698 230.723 75.2579 230.96 75.018C231.198 74.7782 231.308 74.5064 231.308 74.1706V72.2358H233.476V74.1866C233.476 75.114 233.159 75.9134 232.511 76.553C231.862 77.2086 231.087 77.5284 230.185 77.5284Z" fill="white"/>
<path d="M252.144 74.1227L251.637 77.3367H249.454L251.811 63.3457H254.691L257.016 77.3367H254.817L254.327 74.1227H252.144ZM253.235 66.5596L252.46 72.0761H254.01L253.235 66.5596Z" fill="white"/>
<path d="M280.114 73.9947C280.114 74.9221 279.798 75.7056 279.149 76.3612C278.501 77.0168 277.741 77.3365 276.824 77.3365H273.549V63.3296H276.839C277.757 63.3296 278.532 63.6654 279.165 64.321C279.798 64.9765 280.13 65.76 280.13 66.6714V73.9947H280.114ZM275.637 75.2579H276.903C277.235 75.2579 277.52 75.13 277.741 74.8901C277.963 74.6503 278.089 74.3625 278.089 74.0427V66.7194C278.089 66.3836 277.978 66.0958 277.741 65.856C277.504 65.6161 277.235 65.5042 276.903 65.5042H275.637V75.2579Z" fill="white"/>
<path d="M296.741 77.3525V63.3296H302.689V65.4402H298.829V69.2777H301.645V71.4044H298.829V75.2419H302.689V77.3525H296.741Z" fill="white"/>
<path d="M320.993 77.3525H318.905V63.3296H321.895L323.841 73.3871L325.708 63.3296H328.603V77.3525H326.515V68.5422L324.695 77.3525H323.018L320.993 68.5742V77.3525Z" fill="white"/>
<path d="M347.856 71.4843L345.056 63.3296H347.366L348.9 68.3663L350.451 63.3296H352.761L349.945 71.4843V77.3525H347.856V71.4843Z" fill="white"/>
<path d="M148.806 70.637L168.898 70.2213L190.635 69.7896V70.669V71.5484L168.898 71.1167L148.806 70.701V70.637Z" fill="white"/>
<path d="M405.695 70.6365L385.604 70.2208L363.882 69.7891V70.6685V71.5479L385.604 71.1162L405.695 70.7005V70.6365Z" fill="white"/>
</svg>
