<svg width="423" height="96" viewBox="0 0 423 96" fill="none" xmlns="http://www.w3.org/2000/svg">
<path d="M22.806 24.9632C22.806 24.9632 44.7788 33.4996 55.8965 70.2754C55.8965 70.2754 55.9307 70.1601 55.9878 69.9524C55.8965 65.8572 55.8052 60.9892 55.691 56.2019C55.4399 56.4441 55.2116 56.6518 55.0062 56.7787C55.0176 56.7671 48.8766 33.938 22.806 24.9632ZM57.426 74.2783C57.426 74.2783 56.9124 44.5393 56.0563 29.1161C55.7824 24.248 54.7779 19.5645 53.5337 15.4117C51.365 25.1593 50.6915 35.23 51.0682 45.3583C50.6573 44.7123 50.2235 44.0663 49.7784 43.4434C48.8424 42.1053 47.8379 40.8133 46.7992 39.5905C48.3173 30.1428 50.9198 21.8371 53.4538 15.1925C50.7486 6.31002 46.959 0 46.959 0C56.2161 3.64528 59.9943 18.2033 59.9943 18.2033C59.9943 18.2033 63.7725 3.64528 73.0296 0C73.0296 0 69.24 6.31002 66.5348 15.181C69.0688 21.8255 71.6713 30.1428 73.1894 39.5789C72.1507 40.8133 71.1576 42.0937 70.2102 43.4319C69.765 44.0663 69.3427 44.7008 68.9204 45.3468C69.3085 35.23 68.635 25.1593 66.4549 15.4001C65.2107 19.5415 64.2062 24.2365 63.9323 29.1045C63.0762 44.5278 62.5625 74.2668 62.5625 74.2668L59.9943 79.4809L57.426 74.2783ZM120 28.5624C120 28.5624 106.063 48.4384 89.1239 60.5162L98.5865 65.0497C98.5865 65.0497 82.1497 85.1795 59.9943 96C57.2891 86.4946 54.892 76.5508 53.2484 66.4456C51.2508 60.6777 48.7511 54.9906 45.6692 49.6842C45.087 58.7859 45.692 68.6373 48.2945 78.8926C48.2945 78.8926 37.7133 72.4787 34.1063 68.199L43.9456 62.2812C43.9456 62.2812 14.6904 44.2855 0 28.5624C0 28.5624 13.937 48.4384 30.8761 60.5162L21.4135 65.0497C21.4135 65.0497 37.8503 85.1795 60.0057 96C62.7109 86.4946 65.108 76.5393 66.7516 66.434C68.7492 60.6662 71.2489 54.9791 74.3308 49.6727C74.913 58.7743 74.308 68.6258 71.7055 78.881C71.7055 78.881 82.2867 72.4672 85.8936 68.1875L76.0544 62.2696C76.0544 62.2812 105.31 44.297 120 28.5624ZM97.1825 24.9632C97.1825 24.9632 75.2097 33.4996 64.0921 70.2754C64.0921 70.2754 64.0578 70.1601 64.0008 69.9524C64.0921 65.8688 64.1834 60.9892 64.2975 56.2019C64.5486 56.4441 64.7769 56.6518 64.9824 56.7787C64.971 56.7671 71.112 33.938 97.1825 24.9632Z" fill="url(#paint0_linear_172_181)"/>
<path d="M138.439 56.9619C136.739 56.9619 135.312 56.3606 134.122 55.1408C132.949 53.9382 132.354 52.4607 132.354 50.7427V30.5215H136.11V50.7083C136.11 51.344 136.331 51.8594 136.756 52.3061C137.198 52.7356 137.708 52.9589 138.32 52.9589C138.932 52.9589 139.459 52.7356 139.884 52.3061C140.309 51.8594 140.53 51.344 140.53 50.7083V30.5215H144.542V50.7427C144.542 52.4951 143.947 53.9726 142.757 55.1752C141.55 56.3606 140.122 56.9619 138.439 56.9619Z" fill="url(#paint1_linear_172_181)"/>
<path d="M158.446 56.6699H147.958V30.5215H151.8V52.7528H158.446V56.6699Z" fill="url(#paint2_linear_172_181)"/>
<path d="M161.387 34.4558H157.29V30.5215H169.291V34.4558H165.229V56.6699H161.387V34.4558Z" fill="url(#paint3_linear_172_181)"/>
<path d="M176.243 56.6699H172.385V30.5215H176.243V56.6699Z" fill="url(#paint4_linear_172_181)"/>
<path d="M183.519 56.6695H179.677V30.4868H185.184L188.771 49.282L192.205 30.4868H197.508V56.6695H193.667V40.228L190.335 56.6695H187.241L183.519 40.2624V56.6695Z" fill="url(#paint5_linear_172_181)"/>
<path d="M205.667 50.6568L204.732 56.6699H200.721L205.055 30.5215H210.342L214.608 56.6699H210.563L209.662 50.6568H205.667ZM207.673 36.5002L206.245 46.8084H209.101L207.673 36.5002Z" fill="url(#paint6_linear_172_181)"/>
<path d="M218.348 34.4558H214.251V30.5215H226.252V34.4558H222.19V56.6699H218.348V34.4558Z" fill="url(#paint7_linear_172_181)"/>
<path d="M229.346 56.6695V30.4868H240.293V34.4383H233.188V41.6025H238.372V45.5711H233.188V52.7181H240.293V56.6695H229.346Z" fill="url(#paint8_linear_172_181)"/>
<path d="M257.784 30.5215C259.654 30.5215 261.133 31.1228 262.237 32.3426C263.257 33.4937 263.784 34.9712 263.784 36.7579V40.5548C263.784 42.2728 263.206 43.7503 262.033 44.9701C260.861 46.1899 259.45 46.8084 257.801 46.8084H255.591V56.6527H251.766V30.5215H257.784ZM260.079 36.8266C260.079 36.1394 259.875 35.5897 259.484 35.1773C259.093 34.765 258.549 34.5417 257.903 34.5417H255.591V42.9085H257.903C258.515 42.9085 259.025 42.6851 259.45 42.2384C259.875 41.7917 260.079 41.2592 260.079 40.6235V36.8266Z" fill="url(#paint9_linear_172_181)"/>
<path d="M266.844 56.6695V30.4868H277.74V34.4383H270.668V41.6025H275.836V45.5711H270.668V52.7181H277.74V56.6695H266.844Z" fill="url(#paint10_linear_172_181)"/>
<path d="M286.409 30.5215C288.551 30.5215 290.114 31.1228 291.117 32.3426C292.001 33.4078 292.426 34.8681 292.426 36.7579V40.5548C292.426 42.3931 291.746 43.9736 290.369 45.245L293.208 56.6699H289.078L286.766 46.8256C286.664 46.8256 286.545 46.8256 286.426 46.8256H284.216V56.6699H280.391V30.5215H286.409ZM288.704 36.8266C288.704 35.3148 287.973 34.5417 286.511 34.5417H284.199V42.9085H286.511C287.123 42.9085 287.633 42.6851 288.058 42.2384C288.483 41.7917 288.687 41.2592 288.687 40.6235V36.8266H288.704Z" fill="url(#paint11_linear_172_181)"/>
<path d="M300.33 56.6695H296.506V30.4868H307.402V34.4383H300.33V41.6025H305.498V45.5711H300.33V56.6695Z" fill="url(#paint12_linear_172_181)"/>
<path d="M316.088 30.1777C317.788 30.1777 319.216 30.7962 320.388 32.016C321.578 33.2358 322.156 34.7133 322.156 36.4485V50.7253C322.156 52.4605 321.561 53.9552 320.371 55.1579C319.182 56.3777 317.754 56.979 316.071 56.979C314.388 56.979 312.96 56.3605 311.77 55.1407C310.598 53.9209 310.003 52.4434 310.003 50.7082V36.4314C310.003 34.6961 310.597 33.2186 311.787 31.9988C313.011 30.779 314.439 30.1777 316.088 30.1777ZM318.179 36.3626C318.179 35.727 317.958 35.2116 317.55 34.7649C317.125 34.3354 316.598 34.112 316.003 34.112C315.391 34.112 314.881 34.3354 314.439 34.7649C314.014 35.2116 313.793 35.727 313.793 36.3626V50.691C313.793 51.3095 314.014 51.8421 314.439 52.2887C314.864 52.7182 315.391 52.9416 316.003 52.9416C316.615 52.9416 317.125 52.7182 317.55 52.2887C317.975 51.8421 318.179 51.3266 318.179 50.691V36.3626Z" fill="url(#paint13_linear_172_181)"/>
<path d="M331.59 30.5215C333.732 30.5215 335.296 31.1228 336.299 32.3426C337.183 33.4078 337.608 34.8681 337.608 36.7579V40.5548C337.608 42.3931 336.928 43.9736 335.551 45.245L338.39 56.6699H334.242L331.93 46.8256C331.828 46.8256 331.709 46.8256 331.59 46.8256H329.381V56.6699H325.556V30.5215H331.59ZM333.885 36.8266C333.885 35.3148 333.154 34.5417 331.692 34.5417H329.381V42.9085H331.692C332.304 42.9085 332.814 42.6851 333.239 42.2384C333.664 41.7917 333.868 41.2592 333.868 40.6235V36.8266H333.885Z" fill="url(#paint14_linear_172_181)"/>
<path d="M345.512 56.6695H341.687V30.4868H347.177L350.747 49.282L354.164 30.4868H359.45V56.6695H355.626V40.228L352.294 56.6695H349.217L345.512 40.2624V56.6695Z" fill="url(#paint15_linear_172_181)"/>
<path d="M367.575 50.6568L366.64 56.6699H362.646L366.963 30.5215H372.233L376.482 56.6699H372.454L371.553 50.6568H367.575ZM369.581 36.5002L368.17 46.8084H371.009L369.581 36.5002Z" fill="url(#paint16_linear_172_181)"/>
<path d="M383.996 30.4868L389.078 48.0622V30.4868H392.92V56.6695H388.806L383.537 39.9016V56.6695H379.712V30.4868H383.996Z" fill="url(#paint17_linear_172_181)"/>
<path d="M402.354 56.9964C400.671 56.9964 399.226 56.395 398.053 55.1752C396.864 53.9554 396.286 52.4779 396.286 50.7599V36.4831C396.286 34.7479 396.881 33.2704 398.07 32.0506C399.26 30.8308 400.688 30.2295 402.371 30.2295C404.054 30.2295 405.482 30.848 406.672 32.0678C407.844 33.2876 408.439 34.7651 408.439 36.4831V39.4725H404.479V36.3972C404.479 35.7787 404.258 35.229 403.833 34.7823C403.408 34.3356 402.881 34.1122 402.269 34.1122C401.657 34.1122 401.147 34.3356 400.722 34.7823C400.297 35.229 400.076 35.7615 400.076 36.3972V50.7256C400.076 51.3441 400.297 51.8766 400.722 52.3233C401.147 52.7528 401.657 52.9762 402.269 52.9762C402.881 52.9762 403.408 52.7528 403.833 52.3233C404.258 51.8766 404.479 51.3612 404.479 50.7256V47.1177H408.439V50.7771C408.439 52.5123 407.844 53.9898 406.655 55.1924C405.431 56.395 404.02 56.9964 402.354 56.9964Z" fill="url(#paint18_linear_172_181)"/>
<path d="M411.55 56.6695V30.4868H422.446V34.4383H415.374V41.6025H420.542V45.5711H415.374V52.7181H422.446V56.6695H411.55Z" fill="url(#paint19_linear_172_181)"/>
<path d="M205.924 74.989L205.418 78.2029H203.234L205.592 64.2119H208.471L210.796 78.2029H208.597L208.107 74.989H205.924ZM207.015 67.4258L206.24 72.9423H207.791L207.015 67.4258Z" fill="url(#paint20_linear_172_181)"/>
<path d="M230.334 78.3946C229.417 78.3946 228.626 78.0748 227.977 77.4192C227.329 76.7637 227.012 75.9802 227.012 75.0528V67.4097C227.012 66.4823 227.329 65.6828 227.977 65.0432C228.626 64.3877 229.401 64.0679 230.319 64.0679C231.236 64.0679 232.027 64.4036 232.66 65.0592C233.309 65.7148 233.625 66.4983 233.625 67.4257V69.0247H231.458V67.3777C231.458 67.0419 231.347 66.7541 231.11 66.5143C230.872 66.2744 230.588 66.1625 230.255 66.1625C229.923 66.1625 229.638 66.2744 229.417 66.5143C229.18 66.7541 229.069 67.0419 229.069 67.3777V75.0368C229.069 75.3726 229.18 75.6604 229.417 75.8842C229.654 76.1241 229.923 76.236 230.255 76.236C230.588 76.236 230.872 76.1241 231.11 75.8842C231.347 75.6444 231.458 75.3726 231.458 75.0368V73.102H233.625V75.0528C233.625 75.9802 233.309 76.7797 232.66 77.4192C232.011 78.0748 231.236 78.3946 230.334 78.3946Z" fill="url(#paint21_linear_172_181)"/>
<path d="M252.293 74.989L251.787 78.2029H249.604L251.961 64.2119H254.84L257.166 78.2029H254.967L254.476 74.989H252.293ZM253.385 67.4258L252.609 72.9423H254.16L253.385 67.4258Z" fill="url(#paint22_linear_172_181)"/>
<path d="M280.263 74.8609C280.263 75.7883 279.947 76.5718 279.298 77.2274C278.65 77.883 277.89 78.2028 276.973 78.2028H273.698V64.1958H276.989C277.906 64.1958 278.681 64.5316 279.314 65.1872C279.947 65.8427 280.279 66.6262 280.279 67.5376V74.8609H280.263ZM275.786 76.1241H277.052C277.384 76.1241 277.669 75.9962 277.89 75.7563C278.112 75.5165 278.238 75.2287 278.238 74.9089V67.5856C278.238 67.2498 278.128 66.962 277.89 66.7222C277.653 66.4823 277.384 66.3704 277.052 66.3704H275.786V76.1241Z" fill="url(#paint23_linear_172_181)"/>
<path d="M296.89 78.2187V64.1958H302.839V66.3064H298.979V70.144H301.795V72.2706H298.979V76.1081H302.839V78.2187H296.89Z" fill="url(#paint24_linear_172_181)"/>
<path d="M321.143 78.2187H319.054V64.1958H322.044L323.99 74.2533L325.857 64.1958H328.752V78.2187H326.664V69.4084L324.845 78.2187H323.168L321.143 69.4404V78.2187Z" fill="url(#paint25_linear_172_181)"/>
<path d="M348.006 72.3505L345.205 64.1958H347.515L349.05 69.2325L350.6 64.1958H352.91L350.094 72.3505V78.2188H348.006V72.3505Z" fill="url(#paint26_linear_172_181)"/>
<path d="M148.955 71.5032L169.047 71.0875L190.784 70.6558V71.5352V72.4146L169.047 71.9829L148.955 71.5672V71.5032Z" fill="url(#paint27_linear_172_181)"/>
<path d="M405.844 71.5027L385.753 71.087L364.031 70.6553V71.5347V72.4141L385.753 71.9824L405.844 71.5667V71.5027Z" fill="url(#paint28_linear_172_181)"/>
<defs>
<linearGradient id="paint0_linear_172_181" x1="59.8472" y1="95.4905" x2="59.8472" y2="8.25391" gradientUnits="userSpaceOnUse">
<stop stop-color="#FFCC00"/>
<stop offset="0.5294" stop-color="#FEF200"/>
<stop offset="1" stop-color="#FFCC00"/>
</linearGradient>
<linearGradient id="paint1_linear_172_181" x1="138.432" y1="56.8216" x2="138.432" y2="32.7948" gradientUnits="userSpaceOnUse">
<stop stop-color="#FFCC00"/>
<stop offset="0.5294" stop-color="#FEF200"/>
<stop offset="1" stop-color="#FFCC00"/>
</linearGradient>
<linearGradient id="paint2_linear_172_181" x1="153.189" y1="56.5311" x2="153.189" y2="32.7697" gradientUnits="userSpaceOnUse">
<stop stop-color="#FFCC00"/>
<stop offset="0.5294" stop-color="#FEF200"/>
<stop offset="1" stop-color="#FFCC00"/>
</linearGradient>
<linearGradient id="paint3_linear_172_181" x1="163.275" y1="56.5311" x2="163.275" y2="32.7697" gradientUnits="userSpaceOnUse">
<stop stop-color="#FFCC00"/>
<stop offset="0.5294" stop-color="#FEF200"/>
<stop offset="1" stop-color="#FFCC00"/>
</linearGradient>
<linearGradient id="paint4_linear_172_181" x1="174.309" y1="56.5311" x2="174.309" y2="32.7697" gradientUnits="userSpaceOnUse">
<stop stop-color="#FFCC00"/>
<stop offset="0.5294" stop-color="#FEF200"/>
<stop offset="1" stop-color="#FFCC00"/>
</linearGradient>
<linearGradient id="paint5_linear_172_181" x1="188.57" y1="56.5306" x2="188.57" y2="32.738" gradientUnits="userSpaceOnUse">
<stop stop-color="#FFCC00"/>
<stop offset="0.5294" stop-color="#FEF200"/>
<stop offset="1" stop-color="#FFCC00"/>
</linearGradient>
<linearGradient id="paint6_linear_172_181" x1="207.647" y1="56.5311" x2="207.647" y2="32.7697" gradientUnits="userSpaceOnUse">
<stop stop-color="#FFCC00"/>
<stop offset="0.5294" stop-color="#FEF200"/>
<stop offset="1" stop-color="#FFCC00"/>
</linearGradient>
<linearGradient id="paint7_linear_172_181" x1="220.236" y1="56.5311" x2="220.236" y2="32.7697" gradientUnits="userSpaceOnUse">
<stop stop-color="#FFCC00"/>
<stop offset="0.5294" stop-color="#FEF200"/>
<stop offset="1" stop-color="#FFCC00"/>
</linearGradient>
<linearGradient id="paint8_linear_172_181" x1="234.805" y1="56.5306" x2="234.805" y2="32.738" gradientUnits="userSpaceOnUse">
<stop stop-color="#FFCC00"/>
<stop offset="0.5294" stop-color="#FEF200"/>
<stop offset="1" stop-color="#FFCC00"/>
</linearGradient>
<linearGradient id="paint9_linear_172_181" x1="257.76" y1="56.514" x2="257.76" y2="32.7682" gradientUnits="userSpaceOnUse">
<stop stop-color="#FFCC00"/>
<stop offset="0.5294" stop-color="#FEF200"/>
<stop offset="1" stop-color="#FFCC00"/>
</linearGradient>
<linearGradient id="paint10_linear_172_181" x1="272.278" y1="56.5306" x2="272.278" y2="32.738" gradientUnits="userSpaceOnUse">
<stop stop-color="#FFCC00"/>
<stop offset="0.5294" stop-color="#FEF200"/>
<stop offset="1" stop-color="#FFCC00"/>
</linearGradient>
<linearGradient id="paint11_linear_172_181" x1="286.783" y1="56.5311" x2="286.783" y2="32.7697" gradientUnits="userSpaceOnUse">
<stop stop-color="#FFCC00"/>
<stop offset="0.5294" stop-color="#FEF200"/>
<stop offset="1" stop-color="#FFCC00"/>
</linearGradient>
<linearGradient id="paint12_linear_172_181" x1="301.94" y1="56.5306" x2="301.94" y2="32.738" gradientUnits="userSpaceOnUse">
<stop stop-color="#FFCC00"/>
<stop offset="0.5294" stop-color="#FEF200"/>
<stop offset="1" stop-color="#FFCC00"/>
</linearGradient>
<linearGradient id="paint13_linear_172_181" x1="316.064" y1="56.8367" x2="316.064" y2="32.4821" gradientUnits="userSpaceOnUse">
<stop stop-color="#FFCC00"/>
<stop offset="0.5294" stop-color="#FEF200"/>
<stop offset="1" stop-color="#FFCC00"/>
</linearGradient>
<linearGradient id="paint14_linear_172_181" x1="331.956" y1="56.5311" x2="331.956" y2="32.7697" gradientUnits="userSpaceOnUse">
<stop stop-color="#FFCC00"/>
<stop offset="0.5294" stop-color="#FEF200"/>
<stop offset="1" stop-color="#FFCC00"/>
</linearGradient>
<linearGradient id="paint15_linear_172_181" x1="350.546" y1="56.5306" x2="350.546" y2="32.738" gradientUnits="userSpaceOnUse">
<stop stop-color="#FFCC00"/>
<stop offset="0.5294" stop-color="#FEF200"/>
<stop offset="1" stop-color="#FFCC00"/>
</linearGradient>
<linearGradient id="paint16_linear_172_181" x1="369.547" y1="56.5311" x2="369.547" y2="32.7697" gradientUnits="userSpaceOnUse">
<stop stop-color="#FFCC00"/>
<stop offset="0.5294" stop-color="#FEF200"/>
<stop offset="1" stop-color="#FFCC00"/>
</linearGradient>
<linearGradient id="paint17_linear_172_181" x1="386.299" y1="56.5306" x2="386.299" y2="32.738" gradientUnits="userSpaceOnUse">
<stop stop-color="#FFCC00"/>
<stop offset="0.5294" stop-color="#FEF200"/>
<stop offset="1" stop-color="#FFCC00"/>
</linearGradient>
<linearGradient id="paint18_linear_172_181" x1="402.347" y1="56.8543" x2="402.347" y2="32.5309" gradientUnits="userSpaceOnUse">
<stop stop-color="#FFCC00"/>
<stop offset="0.5294" stop-color="#FEF200"/>
<stop offset="1" stop-color="#FFCC00"/>
</linearGradient>
<linearGradient id="paint19_linear_172_181" x1="416.984" y1="56.5306" x2="416.984" y2="32.738" gradientUnits="userSpaceOnUse">
<stop stop-color="#FFCC00"/>
<stop offset="0.5294" stop-color="#FEF200"/>
<stop offset="1" stop-color="#FFCC00"/>
</linearGradient>
<linearGradient id="paint20_linear_172_181" x1="207.006" y1="78.1286" x2="207.006" y2="65.4148" gradientUnits="userSpaceOnUse">
<stop stop-color="#FFCC00"/>
<stop offset="0.5294" stop-color="#FEF200"/>
<stop offset="1" stop-color="#FFCC00"/>
</linearGradient>
<linearGradient id="paint21_linear_172_181" x1="230.31" y1="78.3186" x2="230.31" y2="65.2997" gradientUnits="userSpaceOnUse">
<stop stop-color="#FFCC00"/>
<stop offset="0.5294" stop-color="#FEF200"/>
<stop offset="1" stop-color="#FFCC00"/>
</linearGradient>
<linearGradient id="paint22_linear_172_181" x1="253.375" y1="78.1286" x2="253.375" y2="65.4148" gradientUnits="userSpaceOnUse">
<stop stop-color="#FFCC00"/>
<stop offset="0.5294" stop-color="#FEF200"/>
<stop offset="1" stop-color="#FFCC00"/>
</linearGradient>
<linearGradient id="paint23_linear_172_181" x1="276.98" y1="78.1284" x2="276.98" y2="65.4001" gradientUnits="userSpaceOnUse">
<stop stop-color="#FFCC00"/>
<stop offset="0.5294" stop-color="#FEF200"/>
<stop offset="1" stop-color="#FFCC00"/>
</linearGradient>
<linearGradient id="paint24_linear_172_181" x1="299.857" y1="78.1443" x2="299.857" y2="65.4015" gradientUnits="userSpaceOnUse">
<stop stop-color="#FFCC00"/>
<stop offset="0.5294" stop-color="#FEF200"/>
<stop offset="1" stop-color="#FFCC00"/>
</linearGradient>
<linearGradient id="paint25_linear_172_181" x1="323.891" y1="78.1443" x2="323.891" y2="65.4015" gradientUnits="userSpaceOnUse">
<stop stop-color="#FFCC00"/>
<stop offset="0.5294" stop-color="#FEF200"/>
<stop offset="1" stop-color="#FFCC00"/>
</linearGradient>
<linearGradient id="paint26_linear_172_181" x1="349.048" y1="78.1443" x2="349.048" y2="65.4015" gradientUnits="userSpaceOnUse">
<stop stop-color="#FFCC00"/>
<stop offset="0.5294" stop-color="#FEF200"/>
<stop offset="1" stop-color="#FFCC00"/>
</linearGradient>
<linearGradient id="paint27_linear_172_181" x1="169.816" y1="72.4053" x2="169.816" y2="70.807" gradientUnits="userSpaceOnUse">
<stop stop-color="#FFCC00"/>
<stop offset="0.5294" stop-color="#FEF200"/>
<stop offset="1" stop-color="#FFCC00"/>
</linearGradient>
<linearGradient id="paint28_linear_172_181" x1="384.885" y1="72.4048" x2="384.885" y2="70.8065" gradientUnits="userSpaceOnUse">
<stop stop-color="#FFCC00"/>
<stop offset="0.5294" stop-color="#FEF200"/>
<stop offset="1" stop-color="#FFCC00"/>
</linearGradient>
</defs>
</svg>
