<svg width="316" height="241" viewBox="0 0 316 241" fill="none" xmlns="http://www.w3.org/2000/svg">
<path d="M58.4497 48.1641C70.6901 61.119 88.7162 74.9407 103.762 85.5703C111.388 90.9576 118.248 95.5265 123.202 98.748C125.679 100.359 127.68 101.632 129.061 102.504C129.752 102.94 130.288 103.275 130.651 103.501C130.832 103.614 130.971 103.7 131.064 103.758C131.091 103.775 131.114 103.789 131.133 103.801L114.806 113.622L114.755 113.652L114.793 113.697C117.804 117.27 123.722 121.728 128.881 125.292C131.462 127.074 133.854 128.634 135.602 129.748C136.476 130.305 137.189 130.75 137.683 131.057C137.93 131.21 138.123 131.328 138.253 131.408C138.319 131.448 138.368 131.479 138.402 131.499C138.419 131.509 138.431 131.517 138.44 131.522C138.444 131.525 138.448 131.527 138.45 131.528C138.451 131.529 138.451 131.53 138.452 131.53H138.453L138.557 131.594L138.527 131.476C134.207 114.452 133.19 98.0951 134.142 82.9766C139.238 91.775 143.376 101.198 146.686 110.755C149.419 127.555 153.401 144.088 157.896 159.894C139.491 150.882 123.461 138.024 112.024 127.408C106.293 122.089 101.715 117.332 98.5708 113.906C96.9987 112.193 95.7852 110.813 94.9644 109.86C94.554 109.384 94.2413 109.016 94.0317 108.766C93.9271 108.641 93.8483 108.545 93.7954 108.481C93.7798 108.463 93.7664 108.446 93.7554 108.433L109.469 100.905L109.546 100.869L109.477 100.819C95.3659 90.7578 82.5033 77.4469 73.1685 66.6504C68.5015 61.2526 64.7164 56.4839 62.0981 53.0645C60.789 51.3547 59.7716 49.982 59.0815 49.0371C58.8248 48.6855 58.614 48.3926 58.4497 48.1641ZM256.894 49.0371C256.204 49.982 255.187 51.3547 253.877 53.0645C251.259 56.4839 247.474 61.2526 242.807 66.6504C233.472 77.4469 220.61 90.7578 206.499 100.819L206.429 100.869L206.506 100.905L222.219 108.433C222.208 108.446 222.196 108.463 222.18 108.481C222.127 108.545 222.048 108.641 221.944 108.766C221.734 109.016 221.422 109.384 221.011 109.86C220.19 110.813 218.977 112.193 217.405 113.906C214.26 117.332 209.683 122.089 203.952 127.408C192.515 138.024 176.484 150.882 158.079 159.894C162.573 144.087 166.556 127.536 169.289 110.735C172.599 101.178 176.737 91.7554 181.833 82.957C182.785 98.0757 181.769 114.432 177.449 131.456L177.418 131.574L177.523 131.511H177.524C177.524 131.51 177.525 131.509 177.526 131.509C177.528 131.507 177.531 131.506 177.536 131.503C177.544 131.498 177.557 131.491 177.574 131.48C177.607 131.46 177.657 131.43 177.722 131.39C177.853 131.31 178.046 131.191 178.292 131.038C178.787 130.732 179.5 130.285 180.374 129.729C182.121 128.615 184.514 127.056 187.094 125.273C192.254 121.71 198.171 117.25 201.182 113.678L201.22 113.633L201.169 113.603L184.841 103.782C184.861 103.77 184.884 103.757 184.912 103.74C185.005 103.683 185.143 103.598 185.325 103.485C185.688 103.26 186.224 102.927 186.915 102.492C188.296 101.623 190.297 100.351 192.774 98.7422C197.728 95.5249 204.588 90.9599 212.213 85.5752C227.259 74.9508 245.284 61.1297 257.524 48.166C257.36 48.3942 257.15 48.6867 256.894 49.0371ZM179.38 0.456055C179.199 0.772801 178.934 1.2418 178.602 1.85059C177.939 3.06821 177.009 4.84568 175.937 7.08496C173.794 11.5639 171.087 17.8917 168.832 25.2871L168.827 25.3037L168.833 25.3193C173.053 36.386 177.386 50.2368 179.917 65.9502C178.19 68.0029 176.54 70.1325 174.964 72.3574C174.256 73.3668 173.582 74.3766 172.911 75.4023C173.543 58.5974 172.416 41.8694 168.794 25.6562L168.753 25.4697L168.698 25.6523C166.623 32.5572 164.949 40.3866 164.492 48.5049C163.778 61.3584 163.207 80.1769 162.815 95.7812C162.619 103.583 162.467 110.582 162.365 115.631C162.313 118.155 162.275 120.191 162.249 121.597C162.235 122.299 162.225 122.845 162.218 123.214C162.215 123.398 162.213 123.539 162.211 123.634C162.211 123.681 162.21 123.717 162.209 123.741C162.209 123.752 162.209 123.76 162.208 123.766L157.977 132.354L153.748 123.785C153.747 123.779 153.748 123.771 153.748 123.761C153.747 123.737 153.746 123.701 153.746 123.653C153.744 123.559 153.741 123.418 153.738 123.233C153.731 122.864 153.722 122.319 153.708 121.616C153.682 120.211 153.643 118.174 153.591 115.65C153.489 110.602 153.337 103.602 153.141 95.7998C152.749 80.1956 152.179 61.3778 151.465 48.5244C151.008 40.4061 149.333 32.5959 147.258 25.6719L147.204 25.4883L147.162 25.6748C143.559 41.8674 142.431 58.5944 143.044 75.417C142.561 74.6603 142.059 73.9037 141.545 73.1621L140.993 72.377C139.436 70.1515 137.766 68.0029 136.039 65.9688C138.569 50.2364 142.904 36.4054 147.125 25.3389L147.13 25.3223L147.125 25.3066C144.87 17.9016 142.162 11.5683 140.019 7.08691C138.947 4.84642 138.017 3.06843 137.354 1.85059C137.023 1.24179 136.758 0.772828 136.577 0.456055C136.488 0.3021 136.419 0.184191 136.372 0.103516C143.995 3.17 149.376 10.6889 152.857 17.4707C154.607 20.8807 155.876 24.1017 156.707 26.4697C157.122 27.6535 157.427 28.6243 157.629 29.2988C157.73 29.6361 157.806 29.8992 157.856 30.0781C157.881 30.1676 157.899 30.2363 157.912 30.2822C157.918 30.3051 157.922 30.3224 157.925 30.334C157.927 30.3396 157.928 30.3438 157.929 30.3467C157.93 30.3481 157.929 30.3499 157.929 30.3506L157.93 30.3516L157.978 30.5381L158.027 30.3516V30.3506C158.027 30.3499 158.027 30.3481 158.028 30.3467C158.029 30.3438 158.029 30.3395 158.031 30.334C158.034 30.3224 158.039 30.3052 158.045 30.2822C158.058 30.2363 158.076 30.1676 158.101 30.0781C158.151 29.8993 158.226 29.636 158.327 29.2988C158.529 28.6242 158.835 27.6536 159.25 26.4697C160.081 24.1016 161.35 20.8808 163.1 17.4707C166.58 10.6893 171.961 3.17032 179.583 0.103516C179.536 0.18417 179.468 0.302528 179.38 0.456055ZM218.327 42.292C217.288 42.8014 215.783 43.5967 213.92 44.7432C210.195 47.0365 205.035 50.7328 199.296 56.3447C187.839 67.5494 174.076 86.3907 164.809 116.95C164.784 116.861 164.748 116.737 164.706 116.581C164.857 109.808 165.009 101.724 165.198 93.7842C165.584 94.1541 165.94 94.4732 166.265 94.6738L166.328 94.5957L166.341 94.6367V94.6387L166.347 94.6152C166.352 94.597 166.359 94.5694 166.369 94.5332C166.389 94.4606 166.419 94.3523 166.461 94.2109C166.546 93.9281 166.677 93.5117 166.858 92.9766C167.22 91.9063 167.788 90.3612 168.605 88.4609C170.24 84.6601 172.873 79.4378 176.865 73.749C184.702 62.579 197.774 49.61 218.795 42.0674C218.652 42.1352 218.495 42.2094 218.327 42.292ZM97.1577 42.0664C118.181 49.6088 131.253 62.5784 139.091 73.749C143.083 79.4379 145.717 84.66 147.352 88.4609C148.169 90.3613 148.737 91.9063 149.099 92.9766C149.28 93.5116 149.41 93.9281 149.495 94.2109C149.537 94.3523 149.567 94.4606 149.587 94.5332C149.597 94.5695 149.605 94.597 149.61 94.6152C149.612 94.6241 149.614 94.6306 149.615 94.6348V94.6357C149.615 94.6306 149.62 94.6107 149.629 94.5957L149.691 94.6738C150.016 94.4732 150.372 94.1533 150.758 93.7832C150.947 101.723 151.098 109.789 151.25 116.581C151.207 116.736 151.172 116.86 151.147 116.949C141.88 86.3902 128.117 67.5493 116.66 56.3447C110.921 50.7327 105.761 47.0364 102.036 44.7432C100.173 43.5966 98.6683 42.8014 97.6294 42.292C97.4598 42.2088 97.302 42.1346 97.1577 42.0664Z" fill="url(#paint0_radial_172_283)" stroke="#0E0D00" stroke-width="0.1"/>
<path d="M6.62834 212.898C4.77685 212.898 3.2216 212.243 1.92555 210.914C0.648022 209.604 0 207.995 0 206.123V184.098H4.0918V206.086C4.0918 206.778 4.33249 207.34 4.79537 207.826C5.27675 208.294 5.8322 208.537 6.49874 208.537C7.16528 208.537 7.73924 208.294 8.20211 207.826C8.66499 207.34 8.90568 206.778 8.90568 206.086V184.098H13.2752V206.123C13.2752 208.032 12.6272 209.641 11.3311 210.951C10.0166 212.243 8.46132 212.898 6.62834 212.898Z" fill="url(#paint1_linear_172_283)"/>
<path d="M28.4206 212.579H16.9969V184.098H21.1813V208.313H28.4206V212.579Z" fill="url(#paint2_linear_172_283)"/>
<path d="M31.6233 188.383H27.1612V184.098H40.2327V188.383H35.8077V212.579H31.6233V188.383Z" fill="url(#paint3_linear_172_283)"/>
<path d="M47.8058 212.579H43.6029V184.098H47.8058V212.579Z" fill="url(#paint4_linear_172_283)"/>
<path d="M55.7298 212.579H51.5455V184.06H57.5443L61.451 204.532L65.191 184.06H70.9676V212.579H66.7833V194.67L63.1543 212.579H59.7846L55.7298 194.708V212.579Z" fill="url(#paint5_linear_172_283)"/>
<path d="M79.8549 206.03L78.8366 212.579H74.467L79.1883 184.098H84.9465L89.5937 212.579H85.1872L84.2059 206.03H79.8549ZM82.0396 190.61L80.4844 201.838H83.5949L82.0396 190.61Z" fill="url(#paint6_linear_172_283)"/>
<path d="M93.6671 188.383H89.205V184.098H102.277V188.383H97.8515V212.579H93.6671V188.383Z" fill="url(#paint7_linear_172_283)"/>
<path d="M105.646 212.579V184.06H117.569V188.364H109.83V196.168H115.477V200.49H109.83V208.275H117.569V212.579H105.646Z" fill="url(#paint8_linear_172_283)"/>
<path d="M136.622 184.098C138.659 184.098 140.269 184.753 141.473 186.081C142.584 187.335 143.158 188.945 143.158 190.891V195.026C143.158 196.898 142.528 198.507 141.251 199.836C139.973 201.164 138.436 201.838 136.64 201.838H134.233V212.561H130.068V184.098H136.622ZM139.121 190.966C139.121 190.217 138.899 189.618 138.473 189.169C138.048 188.72 137.455 188.477 136.752 188.477H134.233V197.59H136.752C137.418 197.59 137.973 197.347 138.436 196.86C138.899 196.374 139.121 195.794 139.121 195.101V190.966Z" fill="url(#paint9_linear_172_283)"/>
<path d="M146.49 212.579V184.06H158.358V188.364H150.656V196.168H156.285V200.49H150.656V208.275H158.358V212.579H146.49Z" fill="url(#paint10_linear_172_283)"/>
<path d="M167.801 184.098C170.134 184.098 171.837 184.753 172.929 186.081C173.892 187.242 174.355 188.832 174.355 190.891V195.026C174.355 197.029 173.614 198.75 172.115 200.135L175.207 212.579H170.708L168.19 201.857C168.078 201.857 167.949 201.857 167.819 201.857H165.412V212.579H161.246V184.098H167.801ZM170.3 190.966C170.3 189.319 169.504 188.477 167.912 188.477H165.394V197.59H167.912C168.578 197.59 169.134 197.347 169.597 196.86C170.06 196.374 170.282 195.794 170.282 195.101V190.966H170.3Z" fill="url(#paint11_linear_172_283)"/>
<path d="M182.964 212.579H178.799V184.06H190.667V188.364H182.964V196.168H188.593V200.49H182.964V212.579Z" fill="url(#paint12_linear_172_283)"/>
<path d="M200.128 183.724C201.979 183.724 203.535 184.397 204.812 185.726C206.108 187.055 206.738 188.664 206.738 190.554V206.105C206.738 207.995 206.09 209.623 204.794 210.933C203.498 212.261 201.942 212.916 200.109 212.916C198.276 212.916 196.721 212.243 195.425 210.914C194.148 209.585 193.5 207.976 193.5 206.086V190.535C193.5 188.645 194.148 187.036 195.444 185.707C196.777 184.379 198.332 183.724 200.128 183.724ZM202.405 190.46C202.405 189.768 202.164 189.207 201.72 188.72C201.257 188.252 200.683 188.009 200.035 188.009C199.369 188.009 198.813 188.252 198.332 188.72C197.869 189.207 197.628 189.768 197.628 190.46V206.067C197.628 206.741 197.869 207.321 198.332 207.808C198.795 208.275 199.369 208.519 200.035 208.519C200.702 208.519 201.257 208.275 201.72 207.808C202.183 207.321 202.405 206.76 202.405 206.067V190.46Z" fill="url(#paint13_linear_172_283)"/>
<path d="M217.013 184.098C219.346 184.098 221.05 184.753 222.142 186.081C223.105 187.242 223.568 188.832 223.568 190.891V195.026C223.568 197.029 222.827 198.75 221.327 200.135L224.419 212.579H219.902L217.384 201.857C217.273 201.857 217.143 201.857 217.013 201.857H214.607V212.579H210.441V184.098H217.013ZM219.513 190.966C219.513 189.319 218.717 188.477 217.125 188.477H214.607V197.59H217.125C217.791 197.59 218.347 197.347 218.809 196.86C219.272 196.374 219.494 195.794 219.494 195.101V190.966H219.513Z" fill="url(#paint14_linear_172_283)"/>
<path d="M232.177 212.579H228.011V184.06H233.991L237.88 204.532L241.601 184.06H247.359V212.579H243.193V194.67L239.564 212.579H236.213L232.177 194.708V212.579Z" fill="url(#paint15_linear_172_283)"/>
<path d="M256.21 206.03L255.191 212.579H250.84L255.543 184.098H261.283L265.911 212.579H261.523L260.542 206.03H256.21ZM258.394 190.61L256.858 201.838H259.95L258.394 190.61Z" fill="url(#paint16_linear_172_283)"/>
<path d="M274.095 184.06L279.631 203.204V184.06H283.815V212.579H279.335L273.595 194.315V212.579H269.429V184.06H274.095Z" fill="url(#paint17_linear_172_283)"/>
<path d="M294.091 212.935C292.258 212.935 290.684 212.28 289.407 210.951C288.111 209.623 287.481 208.013 287.481 206.142V190.591C287.481 188.701 288.129 187.092 289.425 185.763C290.721 184.435 292.276 183.78 294.109 183.78C295.942 183.78 297.498 184.453 298.794 185.782C300.071 187.111 300.719 188.72 300.719 190.591V193.847H296.405V190.498C296.405 189.824 296.165 189.225 295.702 188.739C295.239 188.252 294.665 188.009 293.998 188.009C293.332 188.009 292.776 188.252 292.313 188.739C291.851 189.225 291.61 189.805 291.61 190.498V206.105C291.61 206.778 291.851 207.358 292.313 207.845C292.776 208.313 293.332 208.556 293.998 208.556C294.665 208.556 295.239 208.313 295.702 207.845C296.165 207.358 296.405 206.797 296.405 206.105V202.175H300.719V206.161C300.719 208.051 300.071 209.66 298.775 210.97C297.442 212.28 295.905 212.935 294.091 212.935Z" fill="url(#paint18_linear_172_283)"/>
<path d="M304.107 212.579V184.06H315.975V188.364H308.273V196.168H313.902V200.49H308.273V208.275H315.975V212.579H304.107Z" fill="url(#paint19_linear_172_283)"/>
<path d="M82.5085 236.92L81.9739 240.314H79.6685L82.1577 225.54H85.1983L87.6541 240.314H85.3319L84.814 236.92H82.5085ZM83.6613 228.934L82.8427 234.759H84.4799L83.6613 228.934Z" fill="url(#paint20_linear_172_283)"/>
<path d="M108.287 240.517C107.318 240.517 106.483 240.179 105.798 239.487C105.113 238.794 104.779 237.967 104.779 236.988V228.916C104.779 227.937 105.113 227.093 105.798 226.417C106.483 225.725 107.302 225.387 108.271 225.387C109.24 225.387 110.075 225.742 110.743 226.434C111.428 227.127 111.762 227.954 111.762 228.933V230.622H109.473V228.883C109.473 228.528 109.356 228.224 109.106 227.971C108.855 227.718 108.555 227.599 108.204 227.599C107.853 227.599 107.552 227.718 107.318 227.971C107.068 228.224 106.951 228.528 106.951 228.883V236.971C106.951 237.325 107.068 237.629 107.318 237.866C107.569 238.119 107.853 238.237 108.204 238.237C108.555 238.237 108.855 238.119 109.106 237.866C109.356 237.612 109.473 237.325 109.473 236.971V234.928H111.762V236.988C111.762 237.967 111.428 238.811 110.743 239.487C110.058 240.179 109.24 240.517 108.287 240.517Z" fill="url(#paint21_linear_172_283)"/>
<path d="M131.475 236.92L130.941 240.314H128.635L131.124 225.54H134.165L136.621 240.314H134.299L133.781 236.92H131.475ZM132.628 228.934L131.809 234.759H133.447L132.628 228.934Z" fill="url(#paint22_linear_172_283)"/>
<path d="M161.013 236.785C161.013 237.765 160.678 238.592 159.994 239.284C159.309 239.977 158.507 240.314 157.538 240.314H154.079V225.523H157.554C158.523 225.523 159.342 225.877 160.01 226.57C160.678 227.262 161.029 228.089 161.029 229.052V236.785H161.013ZM156.285 238.119H157.621C157.972 238.119 158.273 237.984 158.507 237.731C158.741 237.478 158.874 237.174 158.874 236.836V229.102C158.874 228.748 158.757 228.444 158.507 228.191C158.256 227.937 157.972 227.819 157.621 227.819H156.285V238.119Z" fill="url(#paint23_linear_172_283)"/>
<path d="M178.571 240.331V225.523H184.852V227.752H180.776V231.804H183.75V234.05H180.776V238.102H184.852V240.331H178.571Z" fill="url(#paint24_linear_172_283)"/>
<path d="M204.182 240.331H201.976V225.523H205.134L207.189 236.144L209.16 225.523H212.217V240.331H210.012V231.027L208.091 240.331H206.32L204.182 231.061V240.331Z" fill="url(#paint25_linear_172_283)"/>
<path d="M232.549 234.134L229.592 225.523H232.031L233.652 230.842L235.289 225.523H237.728L234.754 234.134V240.331H232.549V234.134Z" fill="url(#paint26_linear_172_283)"/>
<path d="M22.3489 233.239L43.566 232.8L66.5206 232.344V233.273V234.202L43.566 233.746L22.3489 233.307V233.239Z" fill="white"/>
<path d="M293.627 233.239L272.41 232.8L249.472 232.344V233.273V234.201L272.41 233.745L293.627 233.306V233.239Z" fill="white"/>
<defs>
<radialGradient id="paint0_radial_172_283" cx="0" cy="0" r="1" gradientUnits="userSpaceOnUse" gradientTransform="translate(157.982 8.56275) scale(191.578 193.613)">
<stop stop-color="#FEF200"/>
<stop offset="0.2314" stop-color="#9E9300"/>
<stop offset="0.302" stop-color="#867E01"/>
<stop offset="0.3804" stop-color="#FEF200"/>
<stop offset="0.502" stop-color="#FEF200"/>
<stop offset="0.5412" stop-color="#E3D302"/>
<stop offset="0.6118" stop-color="#5C6100"/>
<stop offset="0.6706" stop-color="#A09000"/>
<stop offset="0.7294" stop-color="#FEF200"/>
<stop offset="0.7608" stop-color="#FEF200"/>
<stop offset="1" stop-color="#FEF200"/>
</radialGradient>
<linearGradient id="paint1_linear_172_283" x1="6.63779" y1="212.672" x2="6.63779" y2="184.399" gradientUnits="userSpaceOnUse">
<stop stop-color="#ADB2BD"/>
<stop offset="0.451" stop-color="white"/>
<stop offset="0.6118" stop-color="white"/>
<stop offset="1" stop-color="#ADB2BD"/>
</linearGradient>
<linearGradient id="paint2_linear_172_283" x1="22.7089" y1="212.356" x2="22.7089" y2="184.395" gradientUnits="userSpaceOnUse">
<stop stop-color="#ADB2BD"/>
<stop offset="0.451" stop-color="white"/>
<stop offset="0.6118" stop-color="white"/>
<stop offset="1" stop-color="#ADB2BD"/>
</linearGradient>
<linearGradient id="paint3_linear_172_283" x1="33.6971" y1="212.356" x2="33.6971" y2="184.395" gradientUnits="userSpaceOnUse">
<stop stop-color="#ADB2BD"/>
<stop offset="0.451" stop-color="white"/>
<stop offset="0.6118" stop-color="white"/>
<stop offset="1" stop-color="#ADB2BD"/>
</linearGradient>
<linearGradient id="paint4_linear_172_283" x1="45.7044" y1="212.356" x2="45.7044" y2="184.395" gradientUnits="userSpaceOnUse">
<stop stop-color="#ADB2BD"/>
<stop offset="0.451" stop-color="white"/>
<stop offset="0.6118" stop-color="white"/>
<stop offset="1" stop-color="#ADB2BD"/>
</linearGradient>
<linearGradient id="paint5_linear_172_283" x1="61.2568" y1="212.356" x2="61.2568" y2="184.358" gradientUnits="userSpaceOnUse">
<stop stop-color="#ADB2BD"/>
<stop offset="0.451" stop-color="white"/>
<stop offset="0.6118" stop-color="white"/>
<stop offset="1" stop-color="#ADB2BD"/>
</linearGradient>
<linearGradient id="paint6_linear_172_283" x1="82.0306" y1="212.356" x2="82.0306" y2="184.395" gradientUnits="userSpaceOnUse">
<stop stop-color="#ADB2BD"/>
<stop offset="0.451" stop-color="white"/>
<stop offset="0.6118" stop-color="white"/>
<stop offset="1" stop-color="#ADB2BD"/>
</linearGradient>
<linearGradient id="paint7_linear_172_283" x1="95.741" y1="212.356" x2="95.741" y2="184.395" gradientUnits="userSpaceOnUse">
<stop stop-color="#ADB2BD"/>
<stop offset="0.451" stop-color="white"/>
<stop offset="0.6118" stop-color="white"/>
<stop offset="1" stop-color="#ADB2BD"/>
</linearGradient>
<linearGradient id="paint8_linear_172_283" x1="111.608" y1="212.356" x2="111.608" y2="184.358" gradientUnits="userSpaceOnUse">
<stop stop-color="#ADB2BD"/>
<stop offset="0.451" stop-color="white"/>
<stop offset="0.6118" stop-color="white"/>
<stop offset="1" stop-color="#ADB2BD"/>
</linearGradient>
<linearGradient id="paint9_linear_172_283" x1="136.596" y1="212.41" x2="136.596" y2="186.545" gradientUnits="userSpaceOnUse">
<stop stop-color="#FFCC00"/>
<stop offset="0.5294" stop-color="#FEF200"/>
<stop offset="1" stop-color="#FFCC00"/>
</linearGradient>
<linearGradient id="paint10_linear_172_283" x1="152.409" y1="212.428" x2="152.409" y2="186.512" gradientUnits="userSpaceOnUse">
<stop stop-color="#FFCC00"/>
<stop offset="0.5294" stop-color="#FEF200"/>
<stop offset="1" stop-color="#FFCC00"/>
</linearGradient>
<linearGradient id="paint11_linear_172_283" x1="168.209" y1="212.428" x2="168.209" y2="186.547" gradientUnits="userSpaceOnUse">
<stop stop-color="#FFCC00"/>
<stop offset="0.5294" stop-color="#FEF200"/>
<stop offset="1" stop-color="#FFCC00"/>
</linearGradient>
<linearGradient id="paint12_linear_172_283" x1="184.718" y1="212.428" x2="184.718" y2="186.512" gradientUnits="userSpaceOnUse">
<stop stop-color="#FFCC00"/>
<stop offset="0.5294" stop-color="#FEF200"/>
<stop offset="1" stop-color="#FFCC00"/>
</linearGradient>
<linearGradient id="paint13_linear_172_283" x1="200.102" y1="212.761" x2="200.102" y2="186.234" gradientUnits="userSpaceOnUse">
<stop stop-color="#FFCC00"/>
<stop offset="0.5294" stop-color="#FEF200"/>
<stop offset="1" stop-color="#FFCC00"/>
</linearGradient>
<linearGradient id="paint14_linear_172_283" x1="217.412" y1="212.428" x2="217.412" y2="186.547" gradientUnits="userSpaceOnUse">
<stop stop-color="#FFCC00"/>
<stop offset="0.5294" stop-color="#FEF200"/>
<stop offset="1" stop-color="#FFCC00"/>
</linearGradient>
<linearGradient id="paint15_linear_172_283" x1="237.661" y1="212.428" x2="237.661" y2="186.512" gradientUnits="userSpaceOnUse">
<stop stop-color="#FFCC00"/>
<stop offset="0.5294" stop-color="#FEF200"/>
<stop offset="1" stop-color="#FFCC00"/>
</linearGradient>
<linearGradient id="paint16_linear_172_283" x1="258.357" y1="212.428" x2="258.357" y2="186.547" gradientUnits="userSpaceOnUse">
<stop stop-color="#FFCC00"/>
<stop offset="0.5294" stop-color="#FEF200"/>
<stop offset="1" stop-color="#FFCC00"/>
</linearGradient>
<linearGradient id="paint17_linear_172_283" x1="276.604" y1="212.428" x2="276.604" y2="186.512" gradientUnits="userSpaceOnUse">
<stop stop-color="#FFCC00"/>
<stop offset="0.5294" stop-color="#FEF200"/>
<stop offset="1" stop-color="#FFCC00"/>
</linearGradient>
<linearGradient id="paint18_linear_172_283" x1="294.083" y1="212.78" x2="294.083" y2="186.286" gradientUnits="userSpaceOnUse">
<stop stop-color="#FFCC00"/>
<stop offset="0.5294" stop-color="#FEF200"/>
<stop offset="1" stop-color="#FFCC00"/>
</linearGradient>
<linearGradient id="paint19_linear_172_283" x1="310.026" y1="212.428" x2="310.026" y2="186.512" gradientUnits="userSpaceOnUse">
<stop stop-color="#FFCC00"/>
<stop offset="0.5294" stop-color="#FEF200"/>
<stop offset="1" stop-color="#FFCC00"/>
</linearGradient>
<linearGradient id="paint20_linear_172_283" x1="83.673" y1="240.25" x2="83.673" y2="225.633" gradientUnits="userSpaceOnUse">
<stop stop-color="#ADB2BD"/>
<stop offset="0.451" stop-color="white"/>
<stop offset="0.6118" stop-color="white"/>
<stop offset="1" stop-color="#ADB2BD"/>
</linearGradient>
<linearGradient id="paint21_linear_172_283" x1="108.281" y1="240.45" x2="108.281" y2="225.483" gradientUnits="userSpaceOnUse">
<stop stop-color="#ADB2BD"/>
<stop offset="0.451" stop-color="white"/>
<stop offset="0.6118" stop-color="white"/>
<stop offset="1" stop-color="#ADB2BD"/>
</linearGradient>
<linearGradient id="paint22_linear_172_283" x1="132.64" y1="240.25" x2="132.64" y2="225.633" gradientUnits="userSpaceOnUse">
<stop stop-color="#ADB2BD"/>
<stop offset="0.451" stop-color="white"/>
<stop offset="0.6118" stop-color="white"/>
<stop offset="1" stop-color="#ADB2BD"/>
</linearGradient>
<linearGradient id="paint23_linear_172_283" x1="157.565" y1="240.249" x2="157.565" y2="225.616" gradientUnits="userSpaceOnUse">
<stop stop-color="#ADB2BD"/>
<stop offset="0.451" stop-color="white"/>
<stop offset="0.6118" stop-color="white"/>
<stop offset="1" stop-color="#ADB2BD"/>
</linearGradient>
<linearGradient id="paint24_linear_172_283" x1="181.721" y1="240.266" x2="181.721" y2="225.616" gradientUnits="userSpaceOnUse">
<stop stop-color="#ADB2BD"/>
<stop offset="0.451" stop-color="white"/>
<stop offset="0.6118" stop-color="white"/>
<stop offset="1" stop-color="#ADB2BD"/>
</linearGradient>
<linearGradient id="paint25_linear_172_283" x1="207.112" y1="240.266" x2="207.112" y2="225.616" gradientUnits="userSpaceOnUse">
<stop stop-color="#ADB2BD"/>
<stop offset="0.451" stop-color="white"/>
<stop offset="0.6118" stop-color="white"/>
<stop offset="1" stop-color="#ADB2BD"/>
</linearGradient>
<linearGradient id="paint26_linear_172_283" x1="233.672" y1="240.266" x2="233.672" y2="225.616" gradientUnits="userSpaceOnUse">
<stop stop-color="#ADB2BD"/>
<stop offset="0.451" stop-color="white"/>
<stop offset="0.6118" stop-color="white"/>
<stop offset="1" stop-color="#ADB2BD"/>
</linearGradient>
</defs>
</svg>
