<svg width="316" height="241" viewBox="0 0 316 241" fill="none" xmlns="http://www.w3.org/2000/svg">
<path d="M96.3553 41.6054C96.3553 41.6054 132.977 55.8327 151.506 117.126C151.506 117.126 151.563 116.933 151.658 116.587C151.506 109.762 151.354 101.649 151.164 93.6698C150.745 94.0735 150.365 94.4196 150.022 94.6311C150.041 94.6119 139.806 56.5633 96.3553 41.6054ZM154.055 123.797C154.055 123.797 153.199 74.2322 151.772 48.5268C151.316 40.4134 149.642 32.6075 147.568 25.6861C143.954 41.9322 142.831 58.7166 143.459 75.5972C142.774 74.5205 142.051 73.4439 141.309 72.4057C139.749 70.1754 138.075 68.0221 136.344 65.9841C138.874 50.2379 143.212 36.3951 147.435 25.3208C142.926 10.5167 136.61 0 136.61 0C152.039 6.07546 158.336 30.3389 158.336 30.3389C158.336 30.3389 164.633 6.07546 180.061 0C180.061 0 173.745 10.5167 169.236 25.3016C173.46 36.3759 177.797 50.2379 180.328 65.9649C178.596 68.0221 176.941 70.1562 175.362 72.3864C174.62 73.4439 173.916 74.5013 173.213 75.578C173.859 58.7167 172.737 41.9322 169.103 25.6669C167.03 32.5691 165.356 40.3941 164.899 48.5076C163.472 74.2129 162.616 123.778 162.616 123.778L158.336 132.468L154.055 123.797ZM258.345 47.6039C258.345 47.6039 235.117 80.7306 206.885 100.86L222.656 108.416C222.656 108.416 195.261 141.966 158.336 160C153.827 144.158 149.832 127.585 147.092 110.743C143.763 101.13 139.597 91.651 134.46 82.807C133.49 97.9764 134.499 114.396 138.836 131.488C138.836 131.488 121.201 120.798 115.189 113.665L131.588 103.802C131.588 103.802 82.8292 73.8092 58.3452 47.6039C58.3452 47.6039 81.5736 80.7306 109.805 100.86L94.0344 108.416C94.0344 108.416 121.429 141.966 158.355 160C162.863 144.158 166.858 127.565 169.598 110.723C172.927 101.11 177.093 91.6318 182.23 82.7878C183.2 97.9572 182.192 114.376 177.854 131.468C177.854 131.468 195.49 120.779 201.501 113.646L185.103 103.783C185.103 103.802 233.861 73.8284 258.345 47.6039ZM220.316 41.6054C220.316 41.6054 183.695 55.8327 165.165 117.126C165.165 117.126 165.108 116.933 165.013 116.587C165.165 109.781 165.318 101.649 165.508 93.6698C165.926 94.0735 166.307 94.4196 166.649 94.6311C166.63 94.6119 176.865 56.5633 220.316 41.6054Z" fill="url(#paint0_linear_172_284)"/>
<path d="M6.62834 212.813C4.77685 212.813 3.2216 212.158 1.92555 210.829C0.648022 209.519 0 207.91 0 206.039V184.013H4.0918V206.001C4.0918 206.694 4.33249 207.255 4.79537 207.742C5.27675 208.209 5.8322 208.453 6.49874 208.453C7.16528 208.453 7.73924 208.209 8.20211 207.742C8.66499 207.255 8.90568 206.694 8.90568 206.001V184.013H13.2752V206.039C13.2752 207.947 12.6272 209.557 11.3311 210.867C10.0166 212.158 8.46132 212.813 6.62834 212.813Z" fill="url(#paint1_linear_172_284)"/>
<path d="M28.4206 212.494H16.9969V184.013H21.1813V208.228H28.4206V212.494Z" fill="url(#paint2_linear_172_284)"/>
<path d="M31.6233 188.298H27.1612V184.013H40.2327V188.298H35.8077V212.494H31.6233V188.298Z" fill="url(#paint3_linear_172_284)"/>
<path d="M47.8058 212.494H43.6029V184.013H47.8058V212.494Z" fill="url(#paint4_linear_172_284)"/>
<path d="M55.7298 212.494H51.5455V183.975H57.5443L61.451 204.447L65.191 183.975H70.9676V212.494H66.7833V194.585L63.1543 212.494H59.7846L55.7298 194.623V212.494Z" fill="url(#paint5_linear_172_284)"/>
<path d="M79.8549 205.945L78.8366 212.494H74.467L79.1883 184.013H84.9465L89.5937 212.494H85.1872L84.2059 205.945H79.8549ZM82.0396 190.525L80.4844 201.753H83.5949L82.0396 190.525Z" fill="url(#paint6_linear_172_284)"/>
<path d="M93.6671 188.298H89.205V184.013H102.277V188.298H97.8515V212.494H93.6671V188.298Z" fill="url(#paint7_linear_172_284)"/>
<path d="M105.646 212.494V183.975H117.569V188.279H109.83V196.083H115.477V200.405H109.83V208.19H117.569V212.494H105.646Z" fill="url(#paint8_linear_172_284)"/>
<path d="M136.622 184.013C138.659 184.013 140.269 184.668 141.473 185.996C142.584 187.25 143.158 188.859 143.158 190.806V194.941C143.158 196.813 142.528 198.422 141.251 199.751C139.973 201.079 138.436 201.753 136.64 201.753H134.233V212.475H130.068V184.013H136.622ZM139.121 190.88C139.121 190.132 138.899 189.533 138.473 189.084C138.048 188.635 137.455 188.392 136.752 188.392H134.233V197.505H136.752C137.418 197.505 137.973 197.262 138.436 196.775C138.899 196.289 139.121 195.708 139.121 195.016V190.88Z" fill="url(#paint9_linear_172_284)"/>
<path d="M146.49 212.494V183.975H158.358V188.279H150.656V196.083H156.285V200.405H150.656V208.19H158.358V212.494H146.49Z" fill="url(#paint10_linear_172_284)"/>
<path d="M167.801 184.013C170.134 184.013 171.837 184.668 172.929 185.996C173.892 187.157 174.355 188.747 174.355 190.806V194.941C174.355 196.944 173.614 198.665 172.115 200.05L175.207 212.494H170.708L168.19 201.772C168.078 201.772 167.949 201.772 167.819 201.772H165.412V212.494H161.246V184.013H167.801ZM170.3 190.88C170.3 189.234 169.504 188.392 167.912 188.392H165.394V197.505H167.912C168.578 197.505 169.134 197.262 169.597 196.775C170.06 196.289 170.282 195.708 170.282 195.016V190.88H170.3Z" fill="url(#paint11_linear_172_284)"/>
<path d="M182.964 212.494H178.799V183.975H190.667V188.279H182.964V196.083H188.593V200.405H182.964V212.494Z" fill="url(#paint12_linear_172_284)"/>
<path d="M200.128 183.639C201.979 183.639 203.535 184.312 204.812 185.641C206.108 186.97 206.738 188.579 206.738 190.469V206.02C206.738 207.91 206.09 209.538 204.794 210.848C203.498 212.176 201.942 212.831 200.109 212.831C198.276 212.831 196.721 212.158 195.425 210.829C194.148 209.5 193.5 207.891 193.5 206.001V190.45C193.5 188.56 194.148 186.951 195.444 185.622C196.777 184.294 198.332 183.639 200.128 183.639ZM202.405 190.375C202.405 189.683 202.164 189.122 201.72 188.635C201.257 188.167 200.683 187.924 200.035 187.924C199.369 187.924 198.813 188.167 198.332 188.635C197.869 189.122 197.628 189.683 197.628 190.375V205.982C197.628 206.656 197.869 207.236 198.332 207.723C198.795 208.19 199.369 208.434 200.035 208.434C200.702 208.434 201.257 208.19 201.72 207.723C202.183 207.236 202.405 206.675 202.405 205.982V190.375Z" fill="url(#paint13_linear_172_284)"/>
<path d="M217.013 184.013C219.346 184.013 221.05 184.668 222.142 185.996C223.105 187.157 223.568 188.747 223.568 190.806V194.941C223.568 196.944 222.827 198.665 221.327 200.05L224.419 212.494H219.902L217.384 201.772C217.273 201.772 217.143 201.772 217.013 201.772H214.607V212.494H210.441V184.013H217.013ZM219.513 190.88C219.513 189.234 218.717 188.392 217.125 188.392H214.607V197.505H217.125C217.791 197.505 218.347 197.262 218.809 196.775C219.272 196.289 219.494 195.708 219.494 195.016V190.88H219.513Z" fill="url(#paint14_linear_172_284)"/>
<path d="M232.177 212.494H228.011V183.975H233.991L237.88 204.447L241.601 183.975H247.359V212.494H243.193V194.585L239.564 212.494H236.213L232.177 194.623V212.494Z" fill="url(#paint15_linear_172_284)"/>
<path d="M256.21 205.945L255.191 212.494H250.84L255.543 184.013H261.283L265.911 212.494H261.523L260.542 205.945H256.21ZM258.394 190.525L256.858 201.753H259.95L258.394 190.525Z" fill="url(#paint16_linear_172_284)"/>
<path d="M274.095 183.975L279.631 203.119V183.975H283.815V212.494H279.335L273.595 194.23V212.494H269.429V183.975H274.095Z" fill="url(#paint17_linear_172_284)"/>
<path d="M294.091 212.85C292.258 212.85 290.684 212.195 289.407 210.866C288.111 209.538 287.481 207.928 287.481 206.057V190.506C287.481 188.616 288.129 187.007 289.425 185.678C290.721 184.35 292.276 183.695 294.109 183.695C295.942 183.695 297.498 184.368 298.794 185.697C300.071 187.026 300.719 188.635 300.719 190.506V193.763H296.405V190.413C296.405 189.739 296.165 189.14 295.702 188.654C295.239 188.167 294.665 187.924 293.998 187.924C293.332 187.924 292.776 188.167 292.313 188.654C291.851 189.14 291.61 189.72 291.61 190.413V206.02C291.61 206.693 291.851 207.273 292.313 207.76C292.776 208.228 293.332 208.471 293.998 208.471C294.665 208.471 295.239 208.228 295.702 207.76C296.165 207.273 296.405 206.712 296.405 206.02V202.09H300.719V206.076C300.719 207.966 300.071 209.575 298.775 210.885C297.442 212.195 295.905 212.85 294.091 212.85Z" fill="url(#paint18_linear_172_284)"/>
<path d="M304.107 212.494V183.975H315.975V188.279H308.273V196.083H313.902V200.405H308.273V208.19H315.975V212.494H304.107Z" fill="url(#paint19_linear_172_284)"/>
<path d="M82.5085 236.835L81.9739 240.229H79.6685L82.1577 225.455H85.1983L87.6541 240.229H85.3319L84.814 236.835H82.5085ZM83.6613 228.849L82.8427 234.674H84.4799L83.6613 228.849Z" fill="url(#paint20_linear_172_284)"/>
<path d="M108.287 240.431C107.318 240.431 106.483 240.094 105.798 239.401C105.113 238.709 104.779 237.882 104.779 236.902V228.831C104.779 227.852 105.113 227.008 105.798 226.332C106.483 225.64 107.302 225.302 108.271 225.302C109.24 225.302 110.075 225.657 110.743 226.349C111.428 227.041 111.762 227.869 111.762 228.848V230.537H109.473V228.798C109.473 228.443 109.356 228.139 109.106 227.886C108.855 227.632 108.555 227.514 108.204 227.514C107.853 227.514 107.552 227.632 107.318 227.886C107.068 228.139 106.951 228.443 106.951 228.798V236.886C106.951 237.24 107.068 237.544 107.318 237.78C107.569 238.034 107.853 238.152 108.204 238.152C108.555 238.152 108.855 238.034 109.106 237.78C109.356 237.527 109.473 237.24 109.473 236.886V234.842H111.762V236.902C111.762 237.882 111.428 238.726 110.743 239.401C110.058 240.094 109.24 240.431 108.287 240.431Z" fill="url(#paint21_linear_172_284)"/>
<path d="M131.475 236.835L130.941 240.229H128.635L131.124 225.455H134.165L136.621 240.229H134.299L133.781 236.835H131.475ZM132.628 228.849L131.809 234.674H133.447L132.628 228.849Z" fill="url(#paint22_linear_172_284)"/>
<path d="M161.013 236.7C161.013 237.679 160.678 238.507 159.994 239.199C159.309 239.891 158.507 240.229 157.538 240.229H154.079V225.438H157.554C158.523 225.438 159.342 225.792 160.01 226.484C160.678 227.177 161.029 228.004 161.029 228.967V236.7H161.013ZM156.285 238.034H157.621C157.972 238.034 158.273 237.899 158.507 237.646C158.741 237.392 158.874 237.088 158.874 236.751V229.017C158.874 228.663 158.757 228.359 158.507 228.105C158.256 227.852 157.972 227.734 157.621 227.734H156.285V238.034Z" fill="url(#paint23_linear_172_284)"/>
<path d="M178.571 240.246V225.438H184.852V227.666H180.776V231.719H183.75V233.965H180.776V238.017H184.852V240.246H178.571Z" fill="url(#paint24_linear_172_284)"/>
<path d="M204.182 240.246H201.976V225.438H205.134L207.189 236.058L209.16 225.438H212.217V240.246H210.012V230.942L208.091 240.246H206.32L204.182 230.976V240.246Z" fill="url(#paint25_linear_172_284)"/>
<path d="M232.549 234.049L229.592 225.438H232.031L233.652 230.756L235.289 225.438H237.728L234.754 234.049V240.246H232.549V234.049Z" fill="url(#paint26_linear_172_284)"/>
<path d="M22.3489 233.154L43.566 232.715L66.5206 232.259V233.187V234.116L43.566 233.66L22.3489 233.221V233.154Z" fill="url(#paint27_linear_172_284)"/>
<path d="M293.627 233.154L272.41 232.715L249.472 232.259V233.187V234.116L272.41 233.66L293.627 233.221V233.154Z" fill="url(#paint28_linear_172_284)"/>
<defs>
<linearGradient id="paint0_linear_172_284" x1="158.091" y1="159.151" x2="158.091" y2="13.7565" gradientUnits="userSpaceOnUse">
<stop stop-color="#FFCC00"/>
<stop offset="0.5294" stop-color="#FEF200"/>
<stop offset="1" stop-color="#FFCC00"/>
</linearGradient>
<linearGradient id="paint1_linear_172_284" x1="6.6207" y1="212.66" x2="6.6207" y2="186.489" gradientUnits="userSpaceOnUse">
<stop stop-color="#FFCC00"/>
<stop offset="0.5294" stop-color="#FEF200"/>
<stop offset="1" stop-color="#FFCC00"/>
</linearGradient>
<linearGradient id="paint2_linear_172_284" x1="22.6942" y1="212.343" x2="22.6942" y2="186.461" gradientUnits="userSpaceOnUse">
<stop stop-color="#FFCC00"/>
<stop offset="0.5294" stop-color="#FEF200"/>
<stop offset="1" stop-color="#FFCC00"/>
</linearGradient>
<linearGradient id="paint3_linear_172_284" x1="33.6803" y1="212.343" x2="33.6803" y2="186.461" gradientUnits="userSpaceOnUse">
<stop stop-color="#FFCC00"/>
<stop offset="0.5294" stop-color="#FEF200"/>
<stop offset="1" stop-color="#FFCC00"/>
</linearGradient>
<linearGradient id="paint4_linear_172_284" x1="45.699" y1="212.343" x2="45.699" y2="186.461" gradientUnits="userSpaceOnUse">
<stop stop-color="#FFCC00"/>
<stop offset="0.5294" stop-color="#FEF200"/>
<stop offset="1" stop-color="#FFCC00"/>
</linearGradient>
<linearGradient id="paint5_linear_172_284" x1="61.2318" y1="212.343" x2="61.2318" y2="186.427" gradientUnits="userSpaceOnUse">
<stop stop-color="#FFCC00"/>
<stop offset="0.5294" stop-color="#FEF200"/>
<stop offset="1" stop-color="#FFCC00"/>
</linearGradient>
<linearGradient id="paint6_linear_172_284" x1="82.0111" y1="212.343" x2="82.0111" y2="186.461" gradientUnits="userSpaceOnUse">
<stop stop-color="#FFCC00"/>
<stop offset="0.5294" stop-color="#FEF200"/>
<stop offset="1" stop-color="#FFCC00"/>
</linearGradient>
<linearGradient id="paint7_linear_172_284" x1="95.7241" y1="212.343" x2="95.7241" y2="186.461" gradientUnits="userSpaceOnUse">
<stop stop-color="#FFCC00"/>
<stop offset="0.5294" stop-color="#FEF200"/>
<stop offset="1" stop-color="#FFCC00"/>
</linearGradient>
<linearGradient id="paint8_linear_172_284" x1="111.592" y1="212.343" x2="111.592" y2="186.427" gradientUnits="userSpaceOnUse">
<stop stop-color="#FFCC00"/>
<stop offset="0.5294" stop-color="#FEF200"/>
<stop offset="1" stop-color="#FFCC00"/>
</linearGradient>
<linearGradient id="paint9_linear_172_284" x1="136.596" y1="212.324" x2="136.596" y2="186.46" gradientUnits="userSpaceOnUse">
<stop stop-color="#FFCC00"/>
<stop offset="0.5294" stop-color="#FEF200"/>
<stop offset="1" stop-color="#FFCC00"/>
</linearGradient>
<linearGradient id="paint10_linear_172_284" x1="152.409" y1="212.343" x2="152.409" y2="186.427" gradientUnits="userSpaceOnUse">
<stop stop-color="#FFCC00"/>
<stop offset="0.5294" stop-color="#FEF200"/>
<stop offset="1" stop-color="#FFCC00"/>
</linearGradient>
<linearGradient id="paint11_linear_172_284" x1="168.209" y1="212.343" x2="168.209" y2="186.461" gradientUnits="userSpaceOnUse">
<stop stop-color="#FFCC00"/>
<stop offset="0.5294" stop-color="#FEF200"/>
<stop offset="1" stop-color="#FFCC00"/>
</linearGradient>
<linearGradient id="paint12_linear_172_284" x1="184.718" y1="212.343" x2="184.718" y2="186.427" gradientUnits="userSpaceOnUse">
<stop stop-color="#FFCC00"/>
<stop offset="0.5294" stop-color="#FEF200"/>
<stop offset="1" stop-color="#FFCC00"/>
</linearGradient>
<linearGradient id="paint13_linear_172_284" x1="200.102" y1="212.676" x2="200.102" y2="186.149" gradientUnits="userSpaceOnUse">
<stop stop-color="#FFCC00"/>
<stop offset="0.5294" stop-color="#FEF200"/>
<stop offset="1" stop-color="#FFCC00"/>
</linearGradient>
<linearGradient id="paint14_linear_172_284" x1="217.412" y1="212.343" x2="217.412" y2="186.461" gradientUnits="userSpaceOnUse">
<stop stop-color="#FFCC00"/>
<stop offset="0.5294" stop-color="#FEF200"/>
<stop offset="1" stop-color="#FFCC00"/>
</linearGradient>
<linearGradient id="paint15_linear_172_284" x1="237.661" y1="212.343" x2="237.661" y2="186.427" gradientUnits="userSpaceOnUse">
<stop stop-color="#FFCC00"/>
<stop offset="0.5294" stop-color="#FEF200"/>
<stop offset="1" stop-color="#FFCC00"/>
</linearGradient>
<linearGradient id="paint16_linear_172_284" x1="258.357" y1="212.343" x2="258.357" y2="186.461" gradientUnits="userSpaceOnUse">
<stop stop-color="#FFCC00"/>
<stop offset="0.5294" stop-color="#FEF200"/>
<stop offset="1" stop-color="#FFCC00"/>
</linearGradient>
<linearGradient id="paint17_linear_172_284" x1="276.604" y1="212.343" x2="276.604" y2="186.427" gradientUnits="userSpaceOnUse">
<stop stop-color="#FFCC00"/>
<stop offset="0.5294" stop-color="#FEF200"/>
<stop offset="1" stop-color="#FFCC00"/>
</linearGradient>
<linearGradient id="paint18_linear_172_284" x1="294.083" y1="212.695" x2="294.083" y2="186.202" gradientUnits="userSpaceOnUse">
<stop stop-color="#FFCC00"/>
<stop offset="0.5294" stop-color="#FEF200"/>
<stop offset="1" stop-color="#FFCC00"/>
</linearGradient>
<linearGradient id="paint19_linear_172_284" x1="310.026" y1="212.343" x2="310.026" y2="186.427" gradientUnits="userSpaceOnUse">
<stop stop-color="#FFCC00"/>
<stop offset="0.5294" stop-color="#FEF200"/>
<stop offset="1" stop-color="#FFCC00"/>
</linearGradient>
<linearGradient id="paint20_linear_172_284" x1="83.6511" y1="240.151" x2="83.6511" y2="226.725" gradientUnits="userSpaceOnUse">
<stop stop-color="#FFCC00"/>
<stop offset="0.5294" stop-color="#FEF200"/>
<stop offset="1" stop-color="#FFCC00"/>
</linearGradient>
<linearGradient id="paint21_linear_172_284" x1="108.262" y1="240.351" x2="108.262" y2="226.603" gradientUnits="userSpaceOnUse">
<stop stop-color="#FFCC00"/>
<stop offset="0.5294" stop-color="#FEF200"/>
<stop offset="1" stop-color="#FFCC00"/>
</linearGradient>
<linearGradient id="paint22_linear_172_284" x1="132.618" y1="240.151" x2="132.618" y2="226.725" gradientUnits="userSpaceOnUse">
<stop stop-color="#FFCC00"/>
<stop offset="0.5294" stop-color="#FEF200"/>
<stop offset="1" stop-color="#FFCC00"/>
</linearGradient>
<linearGradient id="paint23_linear_172_284" x1="157.546" y1="240.151" x2="157.546" y2="226.709" gradientUnits="userSpaceOnUse">
<stop stop-color="#FFCC00"/>
<stop offset="0.5294" stop-color="#FEF200"/>
<stop offset="1" stop-color="#FFCC00"/>
</linearGradient>
<linearGradient id="paint24_linear_172_284" x1="181.703" y1="240.167" x2="181.703" y2="226.711" gradientUnits="userSpaceOnUse">
<stop stop-color="#FFCC00"/>
<stop offset="0.5294" stop-color="#FEF200"/>
<stop offset="1" stop-color="#FFCC00"/>
</linearGradient>
<linearGradient id="paint25_linear_172_284" x1="207.084" y1="240.167" x2="207.084" y2="226.711" gradientUnits="userSpaceOnUse">
<stop stop-color="#FFCC00"/>
<stop offset="0.5294" stop-color="#FEF200"/>
<stop offset="1" stop-color="#FFCC00"/>
</linearGradient>
<linearGradient id="paint26_linear_172_284" x1="233.65" y1="240.167" x2="233.65" y2="226.711" gradientUnits="userSpaceOnUse">
<stop stop-color="#FFCC00"/>
<stop offset="0.5294" stop-color="#FEF200"/>
<stop offset="1" stop-color="#FFCC00"/>
</linearGradient>
<linearGradient id="paint27_linear_172_284" x1="44.3785" y1="234.106" x2="44.3785" y2="232.418" gradientUnits="userSpaceOnUse">
<stop stop-color="#FFCC00"/>
<stop offset="0.5294" stop-color="#FEF200"/>
<stop offset="1" stop-color="#FFCC00"/>
</linearGradient>
<linearGradient id="paint28_linear_172_284" x1="271.494" y1="234.106" x2="271.494" y2="232.418" gradientUnits="userSpaceOnUse">
<stop stop-color="#FFCC00"/>
<stop offset="0.5294" stop-color="#FEF200"/>
<stop offset="1" stop-color="#FFCC00"/>
</linearGradient>
</defs>
</svg>
