<svg width="400" height="320" viewBox="0 0 400 320" fill="none" xmlns="http://www.w3.org/2000/svg">
<path d="M76.0202 83.2108C76.0202 83.2108 149.263 111.665 186.322 234.251C186.322 234.251 186.436 233.867 186.626 233.175C186.322 219.524 186.017 203.297 185.637 187.34C184.8 188.147 184.039 188.839 183.354 189.262C183.392 189.224 162.922 113.127 76.0202 83.2108ZM191.42 247.594C191.42 247.594 189.708 148.464 186.854 97.0536C185.941 80.8267 182.593 65.2151 178.446 51.3723C171.217 83.8645 168.972 117.433 170.227 151.194C168.858 149.041 167.412 146.888 165.928 144.811C162.808 140.351 159.46 136.044 155.997 131.968C161.058 100.476 169.733 72.7902 178.179 50.6417C169.162 21.0334 156.53 0 156.53 0C187.387 12.1509 199.981 60.6777 199.981 60.6777C199.981 60.6777 212.575 12.1509 243.432 0C243.432 0 230.8 21.0334 221.783 50.6032C230.229 72.7517 238.904 100.476 243.965 131.93C240.502 136.044 237.192 140.312 234.034 144.773C232.55 146.888 231.142 149.003 229.735 151.156C231.028 117.433 228.783 83.8645 221.516 51.3338C217.369 65.1382 214.021 80.7883 213.108 97.0151C210.254 148.426 208.542 247.556 208.542 247.556L199.981 264.936L191.42 247.594ZM400 95.2079C400 95.2079 353.543 161.461 297.08 201.721L328.622 216.832C328.622 216.832 273.832 283.932 199.981 320C190.964 288.315 182.973 255.169 177.495 221.485C170.836 202.259 162.504 183.302 152.231 165.614C150.29 195.953 152.307 228.791 160.982 262.975C160.982 262.975 125.711 241.596 113.688 227.33L146.485 207.604C146.485 207.604 48.9679 147.618 0 95.2079C0 95.2079 46.4568 161.461 102.92 201.721L71.3783 216.832C71.3783 216.832 126.168 283.932 200.019 320C209.036 288.315 217.027 255.131 222.505 221.447C229.164 202.221 237.496 183.264 247.769 165.576C249.71 195.914 247.693 228.753 239.018 262.937C239.018 262.937 274.289 241.557 286.312 227.292L253.515 207.565C253.515 207.604 351.032 147.657 400 95.2079ZM323.942 83.2108C323.942 83.2108 250.699 111.665 213.64 234.251C213.64 234.251 213.526 233.867 213.336 233.175C213.64 219.563 213.945 203.297 214.325 187.34C215.162 188.147 215.923 188.839 216.608 189.262C216.57 189.224 237.04 113.127 323.942 83.2108Z" fill="url(#paint0_radial_172_287)"/>
<defs>
<radialGradient id="paint0_radial_172_287" cx="0" cy="0" r="1" gradientUnits="userSpaceOnUse" gradientTransform="translate(199.989 17.1255) scale(383.157 387.227)">
<stop stop-color="#FEF200"/>
<stop offset="0.2314" stop-color="#9E9300"/>
<stop offset="0.302" stop-color="#867E01"/>
<stop offset="0.3804" stop-color="#FEF200"/>
<stop offset="0.502" stop-color="#FEF200"/>
<stop offset="0.5412" stop-color="#E3D302"/>
<stop offset="0.6118" stop-color="#5C6100"/>
<stop offset="0.6706" stop-color="#A09000"/>
<stop offset="0.7294" stop-color="#FEF200"/>
<stop offset="0.7608" stop-color="#FEF200"/>
<stop offset="1" stop-color="#FEF200"/>
</radialGradient>
</defs>
</svg>
