<svg width="316" height="241" viewBox="0 0 316 241" fill="none" xmlns="http://www.w3.org/2000/svg">
<path d="M96.3553 41.6054C96.3553 41.6054 132.977 55.8327 151.506 117.126C151.506 117.126 151.563 116.933 151.658 116.587C151.506 109.762 151.354 101.649 151.164 93.6698C150.745 94.0735 150.365 94.4196 150.022 94.6311C150.041 94.6119 139.806 56.5633 96.3553 41.6054ZM154.055 123.797C154.055 123.797 153.199 74.2322 151.772 48.5268C151.316 40.4134 149.642 32.6075 147.568 25.6861C143.954 41.9322 142.831 58.7166 143.459 75.5972C142.774 74.5205 142.051 73.4439 141.309 72.4057C139.749 70.1754 138.075 68.0221 136.344 65.9841C138.874 50.2379 143.212 36.3951 147.435 25.3208C142.926 10.5167 136.61 0 136.61 0C152.039 6.07546 158.336 30.3389 158.336 30.3389C158.336 30.3389 164.633 6.07546 180.061 0C180.061 0 173.745 10.5167 169.236 25.3016C173.46 36.3759 177.797 50.2379 180.328 65.9649C178.596 68.0221 176.941 70.1562 175.362 72.3865C174.62 73.4439 173.916 74.5013 173.213 75.578C173.859 58.7167 172.737 41.9322 169.103 25.6669C167.03 32.5691 165.356 40.3941 164.899 48.5076C163.472 74.2129 162.616 123.778 162.616 123.778L158.336 132.468L154.055 123.797ZM258.345 47.6039C258.345 47.6039 235.117 80.7306 206.885 100.86L222.656 108.416C222.656 108.416 195.261 141.966 158.336 160C153.827 144.158 149.832 127.585 147.092 110.743C143.763 101.13 139.597 91.651 134.46 82.807C133.49 97.9764 134.499 114.396 138.836 131.488C138.836 131.488 121.201 120.798 115.189 113.665L131.588 103.802C131.588 103.802 82.8292 73.8092 58.3452 47.6039C58.3452 47.6039 81.5736 80.7306 109.805 100.86L94.0344 108.416C94.0344 108.416 121.429 141.966 158.355 160C162.863 144.158 166.858 127.565 169.598 110.723C172.927 101.11 177.093 91.6318 182.23 82.7878C183.2 97.9572 182.192 114.376 177.854 131.468C177.854 131.468 195.49 120.779 201.501 113.646L185.103 103.783C185.103 103.802 233.861 73.8284 258.345 47.6039ZM220.316 41.6054C220.316 41.6054 183.695 55.8327 165.165 117.126C165.165 117.126 165.108 116.933 165.013 116.587C165.165 109.781 165.318 101.649 165.508 93.6698C165.926 94.0735 166.307 94.4196 166.649 94.6311C166.63 94.6119 176.865 56.5633 220.316 41.6054Z" fill="white"/>
<path d="M6.62834 212.813C4.77685 212.813 3.2216 212.158 1.92555 210.829C0.648022 209.519 0 207.91 0 206.039V184.013H4.0918V206.001C4.0918 206.693 4.33249 207.255 4.79537 207.741C5.27675 208.209 5.8322 208.453 6.49874 208.453C7.16528 208.453 7.73924 208.209 8.20211 207.741C8.66499 207.255 8.90568 206.693 8.90568 206.001V184.013H13.2752V206.039C13.2752 207.947 12.6272 209.557 11.3311 210.867C10.0166 212.158 8.46132 212.813 6.62834 212.813Z" fill="white"/>
<path d="M28.4208 212.495H16.9971V184.013H21.1814V208.228H28.4208V212.495Z" fill="white"/>
<path d="M31.6232 188.298H27.1611V184.013H40.2327V188.298H35.8076V212.495H31.6232V188.298Z" fill="white"/>
<path d="M47.8059 212.495H43.603V184.013H47.8059V212.495Z" fill="white"/>
<path d="M55.7298 212.494H51.5454V183.975H57.5442L61.4509 204.447L65.1909 183.975H70.9676V212.494H66.7832V194.586L63.1543 212.494H59.7846L55.7298 194.623V212.494Z" fill="white"/>
<path d="M79.8546 205.945L78.8363 212.495H74.4668L79.1881 184.013H84.9462L89.5935 212.495H85.1869L84.2056 205.945H79.8546ZM82.0394 190.525L80.4841 201.753H83.5947L82.0394 190.525Z" fill="white"/>
<path d="M93.6672 188.298H89.2051V184.013H102.277V188.298H97.8515V212.495H93.6672V188.298Z" fill="white"/>
<path d="M105.646 212.494V183.975H117.57V188.279H109.83V196.083H115.477V200.405H109.83V208.19H117.57V212.494H105.646Z" fill="white"/>
<path d="M136.622 184.013C138.658 184.013 140.269 184.668 141.473 185.997C142.583 187.25 143.157 188.86 143.157 190.806V194.942C143.157 196.813 142.528 198.422 141.25 199.751C139.973 201.08 138.436 201.753 136.64 201.753H134.233V212.476H130.067V184.013H136.622ZM139.121 190.881C139.121 190.132 138.899 189.533 138.473 189.084C138.047 188.635 137.455 188.392 136.751 188.392H134.233V197.505H136.751C137.418 197.505 137.973 197.262 138.436 196.775C138.899 196.289 139.121 195.709 139.121 195.016V190.881Z" fill="white"/>
<path d="M146.49 212.494V183.975H158.358V188.279H150.656V196.083H156.284V200.405H150.656V208.19H158.358V212.494H146.49Z" fill="white"/>
<path d="M167.8 184.013C170.133 184.013 171.837 184.668 172.929 185.997C173.892 187.157 174.355 188.748 174.355 190.806V194.942C174.355 196.944 173.614 198.666 172.114 200.05L175.206 212.495H170.707L168.189 201.772C168.078 201.772 167.949 201.772 167.819 201.772H165.412V212.495H161.246V184.013H167.8ZM170.3 190.881C170.3 189.234 169.504 188.392 167.911 188.392H165.393V197.505H167.911C168.578 197.505 169.133 197.262 169.596 196.775C170.059 196.289 170.281 195.709 170.281 195.016V190.881H170.3Z" fill="white"/>
<path d="M182.964 212.494H178.798V183.975H190.666V188.279H182.964V196.083H188.593V200.405H182.964V212.494Z" fill="white"/>
<path d="M200.128 183.639C201.979 183.639 203.535 184.312 204.812 185.641C206.108 186.97 206.738 188.579 206.738 190.469V206.02C206.738 207.91 206.09 209.538 204.794 210.848C203.498 212.176 201.942 212.831 200.109 212.831C198.276 212.831 196.721 212.158 195.425 210.829C194.148 209.5 193.5 207.891 193.5 206.001V190.45C193.5 188.56 194.148 186.951 195.444 185.622C196.777 184.294 198.332 183.639 200.128 183.639ZM202.405 190.376C202.405 189.683 202.164 189.122 201.72 188.635C201.257 188.167 200.683 187.924 200.035 187.924C199.369 187.924 198.813 188.167 198.332 188.635C197.869 189.122 197.628 189.683 197.628 190.376V205.982C197.628 206.656 197.869 207.236 198.332 207.723C198.795 208.191 199.369 208.434 200.035 208.434C200.702 208.434 201.257 208.191 201.72 207.723C202.183 207.236 202.405 206.675 202.405 205.982V190.376Z" fill="white"/>
<path d="M217.013 184.013C219.346 184.013 221.049 184.668 222.142 185.997C223.105 187.157 223.568 188.748 223.568 190.806V194.942C223.568 196.944 222.827 198.666 221.327 200.05L224.419 212.495H219.902L217.384 201.772C217.272 201.772 217.143 201.772 217.013 201.772H214.606V212.495H210.44V184.013H217.013ZM219.513 190.881C219.513 189.234 218.717 188.392 217.124 188.392H214.606V197.505H217.124C217.791 197.505 218.346 197.262 218.809 196.775C219.272 196.289 219.494 195.709 219.494 195.016V190.881H219.513Z" fill="white"/>
<path d="M232.177 212.494H228.011V183.975H233.991L237.879 204.447L241.601 183.975H247.359V212.494H243.193V194.586L239.564 212.494H236.213L232.177 194.623V212.494Z" fill="white"/>
<path d="M256.21 205.945L255.191 212.495H250.84L255.543 184.013H261.283L265.911 212.495H261.523L260.542 205.945H256.21ZM258.394 190.525L256.858 201.753H259.95L258.394 190.525Z" fill="white"/>
<path d="M274.095 183.975L279.631 203.119V183.975H283.815V212.494H279.335L273.595 194.23V212.494H269.429V183.975H274.095Z" fill="white"/>
<path d="M294.091 212.85C292.258 212.85 290.684 212.195 289.406 210.867C288.11 209.538 287.481 207.929 287.481 206.057V190.507C287.481 188.617 288.129 187.007 289.425 185.679C290.721 184.35 292.276 183.695 294.109 183.695C295.942 183.695 297.498 184.369 298.794 185.697C300.071 187.026 300.719 188.635 300.719 190.507V193.763H296.405V190.413C296.405 189.739 296.164 189.14 295.702 188.654C295.239 188.167 294.665 187.924 293.998 187.924C293.332 187.924 292.776 188.167 292.313 188.654C291.85 189.14 291.61 189.721 291.61 190.413V206.02C291.61 206.693 291.85 207.274 292.313 207.76C292.776 208.228 293.332 208.471 293.998 208.471C294.665 208.471 295.239 208.228 295.702 207.76C296.164 207.274 296.405 206.712 296.405 206.02V202.09H300.719V206.076C300.719 207.966 300.071 209.575 298.775 210.885C297.442 212.195 295.905 212.85 294.091 212.85Z" fill="white"/>
<path d="M304.107 212.494V183.975H315.975V188.279H308.273V196.083H313.901V200.405H308.273V208.19H315.975V212.494H304.107Z" fill="white"/>
<path d="M82.5085 236.836L81.9739 240.229H79.6685L82.1577 225.455H85.1983L87.6541 240.229H85.3319L84.814 236.836H82.5085ZM83.6613 228.849L82.8427 234.674H84.4799L83.6613 228.849Z" fill="white"/>
<path d="M108.287 240.432C107.318 240.432 106.483 240.094 105.798 239.402C105.113 238.71 104.779 237.882 104.779 236.903V228.832C104.779 227.852 105.113 227.008 105.798 226.333C106.483 225.64 107.301 225.303 108.27 225.303C109.239 225.303 110.075 225.657 110.743 226.349C111.428 227.042 111.762 227.869 111.762 228.849V230.537H109.473V228.798C109.473 228.443 109.356 228.139 109.106 227.886C108.855 227.633 108.554 227.515 108.204 227.515C107.853 227.515 107.552 227.633 107.318 227.886C107.068 228.139 106.951 228.443 106.951 228.798V236.886C106.951 237.241 107.068 237.544 107.318 237.781C107.569 238.034 107.853 238.152 108.204 238.152C108.554 238.152 108.855 238.034 109.106 237.781C109.356 237.528 109.473 237.241 109.473 236.886V234.843H111.762V236.903C111.762 237.882 111.428 238.726 110.743 239.402C110.058 240.094 109.239 240.432 108.287 240.432Z" fill="white"/>
<path d="M131.475 236.836L130.941 240.229H128.635L131.125 225.455H134.165L136.621 240.229H134.299L133.781 236.836H131.475ZM132.628 228.849L131.809 234.674H133.447L132.628 228.849Z" fill="white"/>
<path d="M161.013 236.7C161.013 237.68 160.679 238.507 159.994 239.2C159.309 239.892 158.507 240.23 157.538 240.23H154.08V225.438H157.555C158.523 225.438 159.342 225.793 160.01 226.485C160.679 227.177 161.029 228.005 161.029 228.967V236.7H161.013ZM156.285 238.034H157.621C157.972 238.034 158.273 237.899 158.507 237.646C158.741 237.393 158.874 237.089 158.874 236.751V229.018C158.874 228.663 158.757 228.359 158.507 228.106C158.256 227.853 157.972 227.734 157.621 227.734H156.285V238.034Z" fill="white"/>
<path d="M178.57 240.246V225.438H184.852V227.667H180.776V231.719H183.749V233.965H180.776V238.018H184.852V240.246H178.57Z" fill="white"/>
<path d="M204.182 240.246H201.977V225.438H205.134L207.189 236.059L209.16 225.438H212.218V240.246H210.012V230.943L208.091 240.246H206.32L204.182 230.976V240.246Z" fill="white"/>
<path d="M232.549 234.05L229.592 225.438H232.031L233.652 230.757L235.289 225.438H237.728L234.755 234.05V240.246H232.549V234.05Z" fill="white"/>
<path d="M22.3486 233.154L43.5657 232.715L66.5203 232.259V233.188V234.117L43.5657 233.661L22.3486 233.222V233.154Z" fill="white"/>
<path d="M293.627 233.154L272.41 232.715L249.472 232.259V233.188V234.117L272.41 233.661L293.627 233.222V233.154Z" fill="white"/>
</svg>
