<svg width="200" height="160" viewBox="0 0 200 160" fill="none" xmlns="http://www.w3.org/2000/svg">
<path d="M0.461914 48.1641C12.7023 61.119 30.7284 74.9407 45.7744 85.5703C53.3999 90.9576 60.2598 95.5265 65.2139 98.748C67.6909 100.359 69.692 101.632 71.0732 102.504C71.7639 102.94 72.2999 103.275 72.6631 103.501C72.8446 103.614 72.9832 103.7 73.0762 103.758C73.1031 103.775 73.1262 103.789 73.1455 103.801L56.8184 113.622L56.7676 113.652L56.8057 113.697C59.8164 117.27 65.7338 121.728 70.8936 125.292C73.4742 127.074 75.8667 128.634 77.6143 129.748C78.4881 130.305 79.2012 130.75 79.6953 131.057C79.9423 131.21 80.1349 131.328 80.2656 131.408C80.3308 131.448 80.3805 131.479 80.4141 131.499C80.4309 131.509 80.4436 131.517 80.4521 131.522C80.4564 131.525 80.4598 131.527 80.4619 131.528C80.4629 131.529 80.4634 131.53 80.4639 131.53H80.4648L80.5693 131.594L80.5391 131.476C76.2189 114.452 75.2023 98.0951 76.1543 82.9766C81.2499 91.775 85.3882 101.198 88.6982 110.755C91.4312 127.555 95.4135 144.088 99.9082 159.894C81.5033 150.882 65.473 138.024 54.0361 127.408C48.3052 122.089 43.7274 117.332 40.583 113.906C39.0109 112.193 37.7974 110.813 36.9766 109.86C36.5662 109.384 36.2535 109.016 36.0439 108.766C35.9393 108.641 35.8605 108.545 35.8076 108.481C35.792 108.463 35.7786 108.446 35.7676 108.433L51.4814 100.905L51.5586 100.869L51.4893 100.819C37.3781 90.7578 24.5155 77.4469 15.1807 66.6504C10.5137 61.2526 6.72858 56.4839 4.11035 53.0645C2.80122 51.3547 1.78384 49.982 1.09375 49.0371C0.836971 48.6855 0.626218 48.3926 0.461914 48.1641ZM198.906 49.0371C198.216 49.982 197.199 51.3547 195.89 53.0645C193.271 56.4839 189.486 61.2526 184.819 66.6504C175.484 77.4469 162.622 90.7578 148.511 100.819L148.441 100.869L148.519 100.905L164.231 108.433C164.22 108.446 164.208 108.463 164.192 108.481C164.139 108.545 164.061 108.641 163.956 108.766C163.747 109.016 163.434 109.384 163.023 109.86C162.203 110.813 160.989 112.193 159.417 113.906C156.273 117.332 151.695 122.089 145.964 127.408C134.527 138.024 118.496 150.882 100.091 159.894C104.586 144.087 108.568 127.536 111.301 110.735C114.611 101.178 118.749 91.7554 123.845 82.957C124.797 98.0757 123.781 114.432 119.461 131.456L119.431 131.574L119.535 131.511H119.536C119.537 131.51 119.537 131.509 119.538 131.509C119.54 131.507 119.544 131.506 119.548 131.503C119.556 131.498 119.569 131.491 119.586 131.48C119.619 131.46 119.669 131.43 119.734 131.39C119.865 131.31 120.058 131.191 120.305 131.038C120.799 130.732 121.512 130.285 122.386 129.729C124.133 128.615 126.526 127.056 129.106 125.273C134.266 121.71 140.184 117.25 143.194 113.678L143.232 113.633L143.182 113.603L126.854 103.782C126.873 103.77 126.897 103.757 126.924 103.74C127.017 103.683 127.155 103.598 127.337 103.485C127.7 103.26 128.236 102.927 128.927 102.492C130.308 101.623 132.309 100.351 134.786 98.7422C139.74 95.5249 146.6 90.9599 154.226 85.5752C169.271 74.9508 187.296 61.1297 199.536 48.166C199.372 48.3942 199.162 48.6867 198.906 49.0371ZM121.393 0.456055C121.211 0.772801 120.946 1.2418 120.614 1.85059C119.951 3.06821 119.021 4.84568 117.949 7.08496C115.806 11.5639 113.099 17.8917 110.844 25.2871L110.839 25.3037L110.845 25.3193C115.065 36.386 119.399 50.2368 121.929 65.9502C120.202 68.0029 118.552 70.1325 116.977 72.3574C116.268 73.3668 115.595 74.3766 114.923 75.4023C115.555 58.5974 114.429 41.8694 110.807 25.6562L110.766 25.4697L110.71 25.6523C108.636 32.5572 106.961 40.3866 106.504 48.5049C105.79 61.3584 105.22 80.1769 104.827 95.7812C104.631 103.583 104.48 110.582 104.377 115.631C104.326 118.155 104.287 120.191 104.261 121.597C104.248 122.299 104.237 122.845 104.23 123.214C104.227 123.398 104.225 123.539 104.224 123.634C104.223 123.681 104.222 123.717 104.222 123.741C104.221 123.752 104.221 123.76 104.221 123.766L99.9893 132.354L95.7598 123.785C95.7597 123.779 95.7599 123.771 95.7598 123.761C95.7593 123.737 95.7586 123.701 95.7578 123.653C95.7561 123.559 95.7533 123.418 95.75 123.233C95.7434 122.864 95.7338 122.319 95.7207 121.616C95.6945 120.211 95.6548 118.174 95.6035 115.65C95.501 110.602 95.3495 103.602 95.1533 95.7998C94.761 80.1956 94.191 61.3778 93.4775 48.5244C93.0207 40.4061 91.3449 32.5959 89.2705 25.6719L89.2158 25.4883L89.1738 25.6748C85.5712 41.8674 84.4435 58.5944 85.0566 75.417C84.5727 74.6603 84.0716 73.9037 83.5576 73.1621L83.0049 72.377C81.4482 70.1515 79.7778 68.0029 78.0508 65.9688C80.5808 50.2364 84.9163 36.4054 89.1367 25.3389L89.1426 25.3223L89.1377 25.3066C86.8824 17.9016 84.1746 11.5683 82.0312 7.08691C80.9596 4.84642 80.0291 3.06843 79.3662 1.85059C79.0348 1.24179 78.7705 0.772828 78.5889 0.456055C78.5006 0.3021 78.4311 0.184191 78.3838 0.103516C86.0073 3.17 91.3887 10.6889 94.8691 17.4707C96.6192 20.8807 97.8879 24.1017 98.7188 26.4697C99.1341 27.6535 99.4395 28.6243 99.6416 29.2988C99.7426 29.6361 99.8184 29.8992 99.8682 30.0781C99.8931 30.1676 99.9115 30.2363 99.9238 30.2822C99.93 30.3051 99.9344 30.3224 99.9375 30.334C99.939 30.3396 99.9406 30.3438 99.9414 30.3467C99.9418 30.3481 99.9412 30.3499 99.9414 30.3506L99.9424 30.3516L99.9902 30.5381L100.039 30.3516V30.3506C100.039 30.3499 100.04 30.3481 100.04 30.3467C100.041 30.3438 100.042 30.3395 100.043 30.334C100.046 30.3224 100.051 30.3052 100.058 30.2822C100.07 30.2363 100.088 30.1676 100.113 30.0781C100.163 29.8993 100.238 29.636 100.339 29.2988C100.541 28.6242 100.847 27.6536 101.263 26.4697C102.094 24.1016 103.362 20.8808 105.112 17.4707C108.593 10.6893 113.973 3.17032 121.596 0.103516C121.548 0.18417 121.481 0.302528 121.393 0.456055ZM160.339 42.292C159.3 42.8014 157.795 43.5967 155.933 44.7432C152.207 47.0365 147.047 50.7328 141.309 56.3447C129.851 67.5494 116.088 86.3907 106.821 116.95C106.796 116.861 106.761 116.737 106.718 116.581C106.869 109.808 107.021 101.724 107.21 93.7842C107.596 94.1541 107.953 94.4732 108.277 94.6738L108.34 94.5957L108.354 94.6367V94.6387L108.359 94.6152C108.364 94.597 108.371 94.5694 108.381 94.5332C108.401 94.4606 108.431 94.3523 108.474 94.2109C108.558 93.9281 108.689 93.5117 108.87 92.9766C109.233 91.9063 109.8 90.3612 110.617 88.4609C112.252 84.6601 114.885 79.4378 118.877 73.749C126.714 62.579 139.786 49.61 160.808 42.0674C160.664 42.1352 160.507 42.2094 160.339 42.292ZM39.1699 42.0664C60.1932 49.6088 73.2657 62.5784 81.1035 73.749C85.0951 79.4379 87.7296 84.66 89.3643 88.4609C90.1815 90.3613 90.7488 91.9063 91.1113 92.9766C91.2926 93.5116 91.4225 93.9281 91.5068 94.2109C91.549 94.3523 91.5796 94.4606 91.5996 94.5332C91.6096 94.5695 91.6174 94.597 91.6221 94.6152C91.6243 94.6241 91.626 94.6306 91.627 94.6348V94.6357C91.6273 94.6306 91.6317 94.6107 91.6416 94.5957L91.7031 94.6738C92.028 94.4732 92.3839 94.1533 92.7705 93.7832C92.9594 101.723 93.1103 109.789 93.2617 116.581C93.219 116.736 93.1845 116.86 93.1592 116.949C83.8924 86.3902 70.1291 67.5493 58.6719 56.3447C52.9333 50.7327 47.7735 47.0364 44.0479 44.7432C42.1851 43.5966 40.6805 42.8014 39.6416 42.292C39.472 42.2088 39.3142 42.1346 39.1699 42.0664Z" fill="url(#paint0_radial_180_41)" stroke="#09090B" stroke-width="0.1"/>
<defs>
<radialGradient id="paint0_radial_180_41" cx="0" cy="0" r="1" gradientUnits="userSpaceOnUse" gradientTransform="translate(99.9945 8.56275) scale(191.578 193.613)">
<stop stop-color="#FDE047"/>
<stop offset="0.2314" stop-color="#9E9300"/>
<stop offset="0.302" stop-color="#867E01"/>
<stop offset="0.3804" stop-color="#FEF200"/>
<stop offset="0.502" stop-color="#FEF200"/>
<stop offset="0.5412" stop-color="#E3D302"/>
<stop offset="0.6118" stop-color="#5C6100"/>
<stop offset="0.6706" stop-color="#A09000"/>
<stop offset="0.7294" stop-color="#FEF200"/>
<stop offset="0.7608" stop-color="#FEF200"/>
<stop offset="1" stop-color="#FEF200"/>
</radialGradient>
</defs>
</svg>
