<svg width="200" height="160" viewBox="0 0 200 160" fill="none" xmlns="http://www.w3.org/2000/svg">
<path d="M38.0101 41.6054C38.0101 41.6054 74.6314 55.8327 93.1608 117.126C93.1608 117.126 93.2179 116.933 93.313 116.587C93.1608 109.762 93.0086 101.649 92.8184 93.6698C92.3999 94.0735 92.0194 94.4196 91.677 94.6311C91.696 94.6119 81.461 56.5633 38.0101 41.6054ZM95.7101 123.797C95.7101 123.797 94.854 74.2322 93.4272 48.5268C92.9706 40.4134 91.2965 32.6075 89.2229 25.6861C85.6083 41.9322 84.4859 58.7166 85.1137 75.5972C84.4288 74.5205 83.7059 73.4439 82.9639 72.4057C81.404 70.1754 79.7298 68.0221 77.9987 65.9841C80.5289 50.2379 84.8664 36.3951 89.0897 25.3208C84.581 10.5167 78.265 0 78.265 0C93.6935 6.07546 99.9905 30.3389 99.9905 30.3389C99.9905 30.3389 106.287 6.07546 121.716 0C121.716 0 115.4 10.5167 110.891 25.3016C115.115 36.3759 119.452 50.2379 121.982 65.9649C120.251 68.0221 118.596 70.1562 117.017 72.3864C116.275 73.4439 115.571 74.5013 114.867 75.578C115.514 58.7167 114.392 41.9322 110.758 25.6669C108.684 32.5691 107.01 40.3941 106.554 48.5076C105.127 74.2129 104.271 123.778 104.271 123.778L99.9905 132.468L95.7101 123.797ZM200 47.6039C200 47.6039 176.772 80.7306 148.54 100.86L164.311 108.416C164.311 108.416 136.916 141.966 99.9905 160C95.4818 144.158 91.4867 127.585 88.7473 110.743C85.418 101.13 81.2518 91.651 76.1153 82.807C75.1451 97.9764 76.1533 114.396 80.4908 131.488C80.4908 131.488 62.8555 120.798 56.8439 113.665L73.2426 103.802C73.2426 103.802 24.484 73.8092 0 47.6039C0 47.6039 23.2284 80.7306 51.4601 100.86L35.6891 108.416C35.6891 108.416 63.0838 141.966 100.01 160C104.518 144.158 108.513 127.565 111.253 110.723C114.582 101.11 118.748 91.6318 123.885 82.7878C124.855 97.9572 123.847 114.376 119.509 131.468C119.509 131.468 137.144 120.779 143.156 113.646L126.757 103.783C126.757 103.802 175.516 73.8284 200 47.6039ZM161.971 41.6054C161.971 41.6054 125.35 55.8327 106.82 117.126C106.82 117.126 106.763 116.933 106.668 116.587C106.82 109.781 106.972 101.649 107.163 93.6698C107.581 94.0735 107.962 94.4196 108.304 94.6311C108.285 94.6119 118.52 56.5633 161.971 41.6054Z" fill="white"/>
</svg>
