<svg width="428" height="96" viewBox="0 0 428 96" fill="none" xmlns="http://www.w3.org/2000/svg">
<path d="M22.806 24.9632C22.806 24.9632 44.7788 33.4996 55.8965 70.2754C55.8965 70.2754 55.9307 70.1601 55.9878 69.9524C55.8965 65.8572 55.8052 60.9892 55.691 56.2019C55.4399 56.4441 55.2116 56.6518 55.0062 56.7787C55.0176 56.7671 48.8766 33.938 22.806 24.9632ZM57.426 74.2783C57.426 74.2783 56.9124 44.5393 56.0563 29.1161C55.7824 24.248 54.7779 19.5645 53.5337 15.4117C51.365 25.1593 50.6915 35.23 51.0682 45.3583C50.6573 44.7123 50.2235 44.0663 49.7784 43.4434C48.8424 42.1053 47.8379 40.8133 46.7992 39.5905C48.3173 30.1428 50.9198 21.8371 53.4538 15.1925C50.7486 6.31002 46.959 0 46.959 0C56.2161 3.64528 59.9943 18.2033 59.9943 18.2033C59.9943 18.2033 63.7725 3.64528 73.0296 0C73.0296 0 69.24 6.31002 66.5348 15.181C69.0688 21.8255 71.6713 30.1428 73.1894 39.5789C72.1507 40.8133 71.1576 42.0937 70.2102 43.4319C69.765 44.0663 69.3427 44.7008 68.9204 45.3468C69.3085 35.23 68.635 25.1593 66.4549 15.4001C65.2107 19.5415 64.2062 24.2365 63.9323 29.1045C63.0762 44.5278 62.5625 74.2668 62.5625 74.2668L59.9943 79.4809L57.426 74.2783ZM120 28.5624C120 28.5624 106.063 48.4384 89.1239 60.5162L98.5865 65.0498C98.5865 65.0498 82.1497 85.1795 59.9943 96C57.2891 86.4946 54.892 76.5508 53.2484 66.4456C51.2508 60.6777 48.7511 54.9906 45.6692 49.6842C45.087 58.7859 45.692 68.6373 48.2945 78.8926C48.2945 78.8926 37.7133 72.4787 34.1063 68.199L43.9456 62.2812C43.9456 62.2812 14.6904 44.2855 0 28.5624C0 28.5624 13.937 48.4384 30.8761 60.5162L21.4135 65.0498C21.4135 65.0498 37.8503 85.1795 60.0057 96C62.7109 86.4946 65.108 76.5393 66.7516 66.434C68.7492 60.6662 71.2489 54.9791 74.3308 49.6727C74.913 58.7743 74.308 68.6258 71.7055 78.881C71.7055 78.881 82.2867 72.4672 85.8936 68.1875L76.0544 62.2696C76.0544 62.2812 105.31 44.297 120 28.5624ZM97.1825 24.9632C97.1825 24.9632 75.2097 33.4996 64.0921 70.2754C64.0921 70.2754 64.0578 70.1601 64.0008 69.9524C64.0921 65.8688 64.1834 60.9892 64.2975 56.2019C64.5486 56.4441 64.7769 56.6518 64.9824 56.7787C64.971 56.7671 71.112 33.938 97.1825 24.9632Z" fill="url(#paint0_radial_175_1054)"/>
<path d="M143.886 55.4618C142.186 55.4618 140.758 54.8605 139.569 53.6407C138.396 52.438 137.801 50.9605 137.801 49.2425V29.0213H141.557V49.2082C141.557 49.8438 141.778 50.3592 142.203 50.8059C142.645 51.2354 143.155 51.4588 143.767 51.4588C144.379 51.4588 144.906 51.2354 145.331 50.8059C145.756 50.3592 145.977 49.8438 145.977 49.2082V29.0213H149.989V49.2425C149.989 50.9949 149.394 52.4724 148.204 53.675C146.997 54.8605 145.569 55.4618 143.886 55.4618Z" fill="url(#paint1_linear_175_1054)"/>
<path d="M163.893 55.1696H153.405V29.0212H157.247V51.2525H163.893V55.1696Z" fill="url(#paint2_linear_175_1054)"/>
<path d="M166.834 32.9555H162.737V29.0212H174.738V32.9555H170.675V55.1696H166.834V32.9555Z" fill="url(#paint3_linear_175_1054)"/>
<path d="M181.69 55.1696H177.832V29.0212H181.69V55.1696Z" fill="url(#paint4_linear_175_1054)"/>
<path d="M188.966 55.1696H185.124V28.9868H190.631L194.218 47.7821L197.652 28.9868H202.955V55.1696H199.114V38.7281L195.782 55.1696H192.688L188.966 38.7624V55.1696Z" fill="url(#paint5_linear_175_1054)"/>
<path d="M211.114 49.1565L210.179 55.1696H206.167L210.502 29.0212H215.788L220.055 55.1696H216.009L215.109 49.1565H211.114ZM213.12 35L211.692 45.3081H214.548L213.12 35Z" fill="url(#paint6_linear_175_1054)"/>
<path d="M223.795 32.9555H219.698V29.0212H231.699V32.9555H227.636V55.1696H223.795V32.9555Z" fill="url(#paint7_linear_175_1054)"/>
<path d="M234.793 55.1696V28.9868H245.74V32.9383H238.635V40.1025H243.819V44.0711H238.635V51.2181H245.74V55.1696H234.793Z" fill="url(#paint8_linear_175_1054)"/>
<path d="M263.231 29.0212C265.101 29.0212 266.579 29.6225 267.684 30.8423C268.704 31.9934 269.231 33.4709 269.231 35.2577V39.0545C269.231 40.7726 268.653 42.2501 267.48 43.4699C266.307 44.6897 264.897 45.3081 263.248 45.3081H261.038V55.1524H257.213V29.0212H263.231ZM265.526 35.3264C265.526 34.6392 265.322 34.0894 264.931 33.6771C264.54 33.2648 263.996 33.0414 263.35 33.0414H261.038V41.4082H263.35C263.962 41.4082 264.472 41.1849 264.897 40.7382C265.322 40.2915 265.526 39.7589 265.526 39.1232V35.3264Z" fill="url(#paint9_linear_175_1054)"/>
<path d="M272.291 55.1696V28.9868H283.187V32.9383H276.116V40.1025H281.283V44.0711H276.116V51.2181H283.187V55.1696H272.291Z" fill="url(#paint10_linear_175_1054)"/>
<path d="M291.856 29.0212C293.998 29.0212 295.561 29.6225 296.564 30.8423C297.448 31.9075 297.873 33.3679 297.873 35.2577V39.0545C297.873 40.8928 297.193 42.4734 295.816 43.7447L298.655 55.1696H294.524L292.213 45.3253C292.111 45.3253 291.992 45.3253 291.873 45.3253H289.663V55.1696H285.838V29.0212H291.856ZM294.151 35.3264C294.151 33.8145 293.42 33.0414 291.958 33.0414H289.646V41.4082H291.958C292.57 41.4082 293.08 41.1849 293.505 40.7382C293.93 40.2915 294.134 39.7589 294.134 39.1232V35.3264H294.151Z" fill="url(#paint11_linear_175_1054)"/>
<path d="M305.777 55.1696H301.953V28.9868H312.849V32.9383H305.777V40.1025H310.945V44.0711H305.777V55.1696Z" fill="url(#paint12_linear_175_1054)"/>
<path d="M321.535 28.6777C323.234 28.6777 324.662 29.2962 325.835 30.516C327.025 31.7358 327.603 33.2133 327.603 34.9485V49.2253C327.603 50.9605 327.008 52.4552 325.818 53.6579C324.628 54.8777 323.2 55.479 321.518 55.479C319.835 55.479 318.407 54.8605 317.217 53.6407C316.044 52.4209 315.449 50.9434 315.449 49.2082V34.9314C315.449 33.1961 316.044 31.7186 317.234 30.4988C318.458 29.279 319.886 28.6777 321.535 28.6777ZM323.625 34.8626C323.625 34.227 323.404 33.7116 322.996 33.2649C322.571 32.8354 322.045 32.612 321.45 32.612C320.838 32.612 320.328 32.8354 319.886 33.2649C319.461 33.7116 319.24 34.227 319.24 34.8626V49.191C319.24 49.8095 319.461 50.3421 319.886 50.7887C320.311 51.2182 320.838 51.4416 321.45 51.4416C322.062 51.4416 322.571 51.2182 322.996 50.7887C323.421 50.3421 323.625 49.8266 323.625 49.191V34.8626Z" fill="url(#paint13_linear_175_1054)"/>
<path d="M337.037 29.0212C339.179 29.0212 340.743 29.6225 341.746 30.8423C342.63 31.9075 343.055 33.3679 343.055 35.2577V39.0545C343.055 40.8928 342.375 42.4734 340.998 43.7447L343.837 55.1696H339.689L337.377 45.3253C337.275 45.3253 337.156 45.3253 337.037 45.3253H334.828V55.1696H331.003V29.0212H337.037ZM339.332 35.3264C339.332 33.8145 338.601 33.0414 337.139 33.0414H334.828V41.4082H337.139C337.751 41.4082 338.261 41.1849 338.686 40.7382C339.111 40.2915 339.315 39.7589 339.315 39.1232V35.3264H339.332Z" fill="url(#paint14_linear_175_1054)"/>
<path d="M350.958 55.1696H347.134V28.9868H352.624L356.194 47.7821L359.61 28.9868H364.897V55.1696H361.072V38.7281L357.741 55.1696H354.664L350.958 38.7624V55.1696Z" fill="url(#paint15_linear_175_1054)"/>
<path d="M373.022 49.1565L372.087 55.1696H368.093L372.41 29.0212H377.68L381.929 55.1696H377.901L377 49.1565H373.022ZM375.028 35L373.617 45.3081H376.456L375.028 35Z" fill="url(#paint16_linear_175_1054)"/>
<path d="M389.443 28.9868L394.525 46.5623V28.9868H398.367V55.1696H394.253L388.984 38.4016V55.1696H385.159V28.9868H389.443Z" fill="url(#paint17_linear_175_1054)"/>
<path d="M407.801 55.4962C406.118 55.4962 404.673 54.8949 403.5 53.6751C402.31 52.4553 401.732 50.9778 401.732 49.2597V34.9829C401.732 33.2477 402.327 31.7702 403.517 30.5504C404.707 29.3306 406.135 28.7293 407.818 28.7293C409.501 28.7293 410.928 29.3478 412.118 30.5676C413.291 31.7874 413.886 33.2649 413.886 34.9829V37.9723H409.926V34.897C409.926 34.2785 409.705 33.7288 409.28 33.2821C408.855 32.8354 408.328 32.6121 407.716 32.6121C407.104 32.6121 406.594 32.8354 406.169 33.2821C405.744 33.7288 405.523 34.2614 405.523 34.897V49.2254C405.523 49.8439 405.744 50.3765 406.169 50.8231C406.594 51.2527 407.104 51.476 407.716 51.476C408.328 51.476 408.855 51.2527 409.28 50.8231C409.705 50.3765 409.926 49.861 409.926 49.2254V45.6175H413.886V49.2769C413.886 51.0121 413.291 52.4896 412.101 53.6922C410.877 54.8949 409.467 55.4962 407.801 55.4962Z" fill="url(#paint18_linear_175_1054)"/>
<path d="M416.997 55.1696V28.9868H427.892V32.9383H420.821V40.1025H425.989V44.0711H420.821V51.2181H427.892V55.1696H416.997Z" fill="url(#paint19_linear_175_1054)"/>
<path d="M211.371 73.4891L210.865 76.703H208.682L211.039 62.7121H213.918L216.244 76.703H214.045L213.554 73.4891H211.371ZM212.463 65.926L211.687 71.4424H213.238L212.463 65.926Z" fill="url(#paint20_linear_175_1054)"/>
<path d="M235.782 76.8947C234.864 76.8947 234.073 76.5749 233.425 75.9194C232.776 75.2638 232.459 74.4803 232.459 73.5529V65.9098C232.459 64.9824 232.776 64.183 233.425 63.5434C234.073 62.8878 234.848 62.568 235.766 62.568C236.683 62.568 237.474 62.9038 238.107 63.5593C238.756 64.2149 239.072 64.9984 239.072 65.9258V67.5248H236.905V65.8779C236.905 65.5421 236.794 65.2543 236.557 65.0144C236.32 64.7746 236.035 64.6626 235.703 64.6626C235.37 64.6626 235.086 64.7746 234.864 65.0144C234.627 65.2543 234.516 65.5421 234.516 65.8779V73.5369C234.516 73.8727 234.627 74.1605 234.864 74.3844C235.101 74.6242 235.37 74.7361 235.703 74.7361C236.035 74.7361 236.32 74.6242 236.557 74.3844C236.794 74.1445 236.905 73.8727 236.905 73.5369V71.6021H239.072V73.5529C239.072 74.4803 238.756 75.2798 238.107 75.9194C237.459 76.5749 236.683 76.8947 235.782 76.8947Z" fill="url(#paint21_linear_175_1054)"/>
<path d="M257.74 73.4891L257.234 76.703H255.051L257.408 62.7121H260.287L262.613 76.703H260.414L259.923 73.4891H257.74ZM258.832 65.926L258.057 71.4424H259.607L258.832 65.926Z" fill="url(#paint22_linear_175_1054)"/>
<path d="M285.71 73.3612C285.71 74.2886 285.394 75.0721 284.745 75.7276C284.097 76.3832 283.337 76.703 282.42 76.703H279.145V62.696H282.436C283.353 62.696 284.128 63.0318 284.761 63.6874C285.394 64.343 285.726 65.1265 285.726 66.0379V73.3612H285.71ZM281.233 74.6243H282.499C282.831 74.6243 283.116 74.4964 283.337 74.2566C283.559 74.0167 283.685 73.7289 283.685 73.4091V66.0859C283.685 65.7501 283.575 65.4623 283.337 65.2224C283.1 64.9826 282.831 64.8706 282.499 64.8706H281.233V74.6243Z" fill="url(#paint23_linear_175_1054)"/>
<path d="M302.337 76.719V62.696H308.286V64.8067H304.426V68.6442H307.242V70.7708H304.426V74.6084H308.286V76.719H302.337Z" fill="url(#paint24_linear_175_1054)"/>
<path d="M326.59 76.719H324.501V62.696H327.492L329.437 72.7535L331.304 62.696H334.199V76.719H332.111V67.9087L330.292 76.719H328.615L326.59 67.9407V76.719Z" fill="url(#paint25_linear_175_1054)"/>
<path d="M353.453 70.8508L350.652 62.696H352.962L354.497 67.7328L356.047 62.696H358.357L355.541 70.8508V76.719H353.453V70.8508Z" fill="url(#paint26_linear_175_1054)"/>
<path d="M154.402 70.0032L174.494 69.5874L196.231 69.1557V70.0351V70.9146L174.494 70.4828L154.402 70.0671V70.0032Z" fill="white"/>
<path d="M411.291 70.0029L391.2 69.5872L369.479 69.1555V70.0349V70.9143L391.2 70.4826L411.291 70.0669V70.0029Z" fill="white"/>
<defs>
<radialGradient id="paint0_radial_175_1054" cx="0" cy="0" r="1" gradientUnits="userSpaceOnUse" gradientTransform="translate(59.9967 5.13765) scale(114.947 116.168)">
<stop stop-color="#FDE047"/>
<stop offset="0.2314" stop-color="#9E9300"/>
<stop offset="0.302" stop-color="#867E01"/>
<stop offset="0.3804" stop-color="#FEF200"/>
<stop offset="0.502" stop-color="#FEF200"/>
<stop offset="0.5412" stop-color="#E3D302"/>
<stop offset="0.6118" stop-color="#5C6100"/>
<stop offset="0.6706" stop-color="#A09000"/>
<stop offset="0.7294" stop-color="#FEF200"/>
<stop offset="0.7608" stop-color="#FEF200"/>
<stop offset="1" stop-color="#FEF200"/>
</radialGradient>
<linearGradient id="paint1_linear_175_1054" x1="143.894" y1="54.9292" x2="143.894" y2="29.2958" gradientUnits="userSpaceOnUse">
<stop stop-color="#B4B4B4"/>
<stop offset="0.451" stop-color="white"/>
<stop offset="0.6118" stop-color="white"/>
<stop offset="1" stop-color="#B4B4B4"/>
</linearGradient>
<linearGradient id="paint2_linear_175_1054" x1="158.659" y1="54.9645" x2="158.659" y2="29.2957" gradientUnits="userSpaceOnUse">
<stop stop-color="#B4B4B4"/>
<stop offset="0.451" stop-color="white"/>
<stop offset="0.6118" stop-color="white"/>
<stop offset="1" stop-color="#B4B4B4"/>
</linearGradient>
<linearGradient id="paint3_linear_175_1054" x1="168.748" y1="54.9645" x2="168.748" y2="29.2957" gradientUnits="userSpaceOnUse">
<stop stop-color="#B4B4B4"/>
<stop offset="0.451" stop-color="white"/>
<stop offset="0.6118" stop-color="white"/>
<stop offset="1" stop-color="#B4B4B4"/>
</linearGradient>
<linearGradient id="paint4_linear_175_1054" x1="179.765" y1="54.9645" x2="179.765" y2="29.2957" gradientUnits="userSpaceOnUse">
<stop stop-color="#B4B4B4"/>
<stop offset="0.451" stop-color="white"/>
<stop offset="0.6118" stop-color="white"/>
<stop offset="1" stop-color="#B4B4B4"/>
</linearGradient>
<linearGradient id="paint5_linear_175_1054" x1="194.04" y1="54.9645" x2="194.04" y2="29.2602" gradientUnits="userSpaceOnUse">
<stop stop-color="#94A3B8"/>
<stop offset="0.451" stop-color="white"/>
<stop offset="0.6118" stop-color="white"/>
<stop offset="1" stop-color="#94A3B8"/>
</linearGradient>
<linearGradient id="paint6_linear_175_1054" x1="213.113" y1="54.876" x2="213.113" y2="29.2957" gradientUnits="userSpaceOnUse">
<stop stop-color="#B4B4B4"/>
<stop offset="0.451" stop-color="white"/>
<stop offset="0.6118" stop-color="white"/>
<stop offset="1" stop-color="#B4B4B4"/>
</linearGradient>
<linearGradient id="paint7_linear_175_1054" x1="225.707" y1="54.9645" x2="225.707" y2="29.2957" gradientUnits="userSpaceOnUse">
<stop stop-color="#B4B4B4"/>
<stop offset="0.451" stop-color="white"/>
<stop offset="0.6118" stop-color="white"/>
<stop offset="1" stop-color="#B4B4B4"/>
</linearGradient>
<linearGradient id="paint8_linear_175_1054" x1="240.262" y1="54.9645" x2="240.262" y2="29.2602" gradientUnits="userSpaceOnUse">
<stop stop-color="#B4B4B4"/>
<stop offset="0.451" stop-color="white"/>
<stop offset="0.6118" stop-color="white"/>
<stop offset="1" stop-color="#B4B4B4"/>
</linearGradient>
<linearGradient id="paint9_linear_175_1054" x1="263.207" y1="55.0138" x2="263.207" y2="31.268" gradientUnits="userSpaceOnUse">
<stop offset="0.5294" stop-color="#FACC15"/>
<stop offset="1" stop-color="#EAB308"/>
</linearGradient>
<linearGradient id="paint10_linear_175_1054" x1="277.725" y1="55.0306" x2="277.725" y2="31.238" gradientUnits="userSpaceOnUse">
<stop offset="0.5294" stop-color="#FACC15"/>
<stop offset="1" stop-color="#EAB308"/>
</linearGradient>
<linearGradient id="paint11_linear_175_1054" x1="292.23" y1="55.0309" x2="292.23" y2="31.2694" gradientUnits="userSpaceOnUse">
<stop offset="0.5294" stop-color="#FACC15"/>
<stop offset="1" stop-color="#EAB308"/>
</linearGradient>
<linearGradient id="paint12_linear_175_1054" x1="307.387" y1="55.0306" x2="307.387" y2="31.238" gradientUnits="userSpaceOnUse">
<stop offset="0.5294" stop-color="#FACC15"/>
<stop offset="1" stop-color="#EAB308"/>
</linearGradient>
<linearGradient id="paint13_linear_175_1054" x1="321.511" y1="55.3367" x2="321.511" y2="30.9821" gradientUnits="userSpaceOnUse">
<stop offset="0.5294" stop-color="#FACC15"/>
<stop offset="1" stop-color="#EAB308"/>
</linearGradient>
<linearGradient id="paint14_linear_175_1054" x1="337.403" y1="55.0309" x2="337.403" y2="31.2694" gradientUnits="userSpaceOnUse">
<stop offset="0.5294" stop-color="#FACC15"/>
<stop offset="1" stop-color="#EAB308"/>
</linearGradient>
<linearGradient id="paint15_linear_175_1054" x1="355.993" y1="55.0306" x2="355.993" y2="31.238" gradientUnits="userSpaceOnUse">
<stop offset="0.5294" stop-color="#FACC15"/>
<stop offset="1" stop-color="#EAB308"/>
</linearGradient>
<linearGradient id="paint16_linear_175_1054" x1="374.993" y1="55.0309" x2="374.993" y2="31.2694" gradientUnits="userSpaceOnUse">
<stop offset="0.5294" stop-color="#FACC15"/>
<stop offset="1" stop-color="#EAB308"/>
</linearGradient>
<linearGradient id="paint17_linear_175_1054" x1="391.746" y1="55.0306" x2="391.746" y2="31.238" gradientUnits="userSpaceOnUse">
<stop offset="0.5294" stop-color="#FACC15"/>
<stop offset="1" stop-color="#EAB308"/>
</linearGradient>
<linearGradient id="paint18_linear_175_1054" x1="407.794" y1="55.3541" x2="407.794" y2="31.0307" gradientUnits="userSpaceOnUse">
<stop offset="0.5294" stop-color="#FACC15"/>
<stop offset="1" stop-color="#EAB308"/>
</linearGradient>
<linearGradient id="paint19_linear_175_1054" x1="422.431" y1="55.0306" x2="422.431" y2="31.238" gradientUnits="userSpaceOnUse">
<stop offset="0.5294" stop-color="#FACC15"/>
<stop offset="1" stop-color="#EAB308"/>
</linearGradient>
<linearGradient id="paint20_linear_175_1054" x1="212.467" y1="76.6575" x2="212.467" y2="62.7849" gradientUnits="userSpaceOnUse">
<stop stop-color="#B4B4B4"/>
<stop offset="0.451" stop-color="white"/>
<stop offset="0.6118" stop-color="white"/>
<stop offset="1" stop-color="#B4B4B4"/>
</linearGradient>
<linearGradient id="paint21_linear_175_1054" x1="235.778" y1="76.6574" x2="235.778" y2="62.7353" gradientUnits="userSpaceOnUse">
<stop stop-color="#B4B4B4"/>
<stop offset="0.451" stop-color="white"/>
<stop offset="0.6118" stop-color="white"/>
<stop offset="1" stop-color="#B4B4B4"/>
</linearGradient>
<linearGradient id="paint22_linear_175_1054" x1="258.844" y1="76.6575" x2="258.844" y2="62.7849" gradientUnits="userSpaceOnUse">
<stop stop-color="#B4B4B4"/>
<stop offset="0.451" stop-color="white"/>
<stop offset="0.6118" stop-color="white"/>
<stop offset="1" stop-color="#B4B4B4"/>
</linearGradient>
<linearGradient id="paint23_linear_175_1054" x1="282.445" y1="76.6416" x2="282.445" y2="62.7847" gradientUnits="userSpaceOnUse">
<stop stop-color="#94A3B8"/>
<stop offset="0.451" stop-color="white"/>
<stop offset="0.6118" stop-color="white"/>
<stop offset="1" stop-color="#94A3B8"/>
</linearGradient>
<linearGradient id="paint24_linear_175_1054" x1="305.319" y1="76.6575" x2="305.319" y2="62.7848" gradientUnits="userSpaceOnUse">
<stop stop-color="#B4B4B4"/>
<stop offset="0.451" stop-color="white"/>
<stop offset="0.6118" stop-color="white"/>
<stop offset="1" stop-color="#B4B4B4"/>
</linearGradient>
<linearGradient id="paint25_linear_175_1054" x1="329.347" y1="76.6575" x2="329.347" y2="62.7848" gradientUnits="userSpaceOnUse">
<stop stop-color="#B4B4B4"/>
<stop offset="0.451" stop-color="white"/>
<stop offset="0.6118" stop-color="white"/>
<stop offset="1" stop-color="#B4B4B4"/>
</linearGradient>
<linearGradient id="paint26_linear_175_1054" x1="354.516" y1="76.6575" x2="354.516" y2="62.7848" gradientUnits="userSpaceOnUse">
<stop stop-color="#B4B4B4"/>
<stop offset="0.451" stop-color="white"/>
<stop offset="0.6118" stop-color="white"/>
<stop offset="1" stop-color="#B4B4B4"/>
</linearGradient>
</defs>
</svg>
