<svg width="426" height="86" viewBox="0 0 426 86" fill="none" xmlns="http://www.w3.org/2000/svg">
<path d="M20.419 22.3523C20.419 22.3523 40.0919 29.9958 50.0459 62.9252C50.0459 62.9252 50.0765 62.8219 50.1276 62.636C50.0459 58.9691 49.9641 54.6102 49.8619 50.3236C49.6371 50.5405 49.4327 50.7265 49.2487 50.8401C49.259 50.8298 43.7608 30.3884 20.419 22.3523ZM51.4153 66.5094C51.4153 66.5094 50.9554 39.8808 50.189 26.0708C49.9437 21.7119 49.0443 17.5182 47.9304 13.7997C45.9887 22.5279 45.3857 31.5452 45.7229 40.6142C45.355 40.0358 44.9667 39.4574 44.5681 38.8996C43.7301 37.7014 42.8308 36.5445 41.9008 35.4496C43.26 26.9901 45.5901 19.5531 47.8589 13.6035C45.4368 5.65005 42.0439 0 42.0439 0C50.332 3.26401 53.7148 16.2994 53.7148 16.2994C53.7148 16.2994 57.0975 3.26401 65.3857 0C65.3857 0 61.9927 5.65004 59.5706 13.5932C61.8394 19.5428 64.1695 26.9901 65.5287 35.4393C64.5987 36.5445 63.7096 37.6911 62.8614 38.8893C62.4628 39.4574 62.0847 40.0255 61.7066 40.6039C62.054 31.5452 61.4511 22.5279 59.4991 13.7894C58.3852 17.4976 57.4858 21.7015 57.2406 26.0604C56.4741 39.8705 56.0142 66.4991 56.0142 66.4991L53.7148 71.1678L51.4153 66.5094ZM107.44 25.575C107.44 25.575 94.9615 43.3721 79.7954 54.1867L88.2676 58.2461C88.2676 58.2461 73.5512 76.2704 53.7148 85.9592C51.2927 77.448 49.1465 68.5442 47.6749 59.4959C45.8865 54.3313 43.6483 49.2391 40.889 44.4876C40.3678 52.6373 40.9095 61.4584 43.2396 70.6411C43.2396 70.6411 33.7659 64.898 30.5365 61.0659L39.3459 55.7671C39.3459 55.7671 13.1528 39.6536 0 25.575C0 25.575 12.4783 43.3721 27.6443 54.1867L19.1722 58.2461C19.1722 58.2461 33.8885 76.2704 53.725 85.9592C56.147 77.448 58.2932 68.5339 59.7648 59.4856C61.5533 54.321 63.7914 49.2287 66.5507 44.4773C67.0719 52.627 66.5303 61.4481 64.2002 70.6307C64.2002 70.6307 73.6738 64.8877 76.9033 61.0556L68.0939 55.7568C68.0939 55.7671 94.287 39.6639 107.44 25.575ZM87.0106 22.3523C87.0106 22.3523 67.3376 29.9958 57.3836 62.9252C57.3836 62.9252 57.353 62.8219 57.3019 62.636C57.3836 58.9794 57.4654 54.6102 57.5676 50.3236C57.7924 50.5405 57.9968 50.7265 58.1808 50.8401C58.1705 50.8298 63.6687 30.3884 87.0106 22.3523Z" fill="white"/>
<path d="M129.26 52.509C127.484 52.509 125.992 51.8807 124.748 50.6062C123.523 49.3497 122.901 47.8059 122.901 46.0109V24.8831H126.826V45.975C126.826 46.6391 127.057 47.1777 127.501 47.6444C127.963 48.0931 128.496 48.3265 129.135 48.3265C129.775 48.3265 130.325 48.0931 130.769 47.6444C131.213 47.1777 131.444 46.6391 131.444 45.975V24.8831H135.636V46.0109C135.636 47.8418 135.014 49.3856 133.771 50.6421C132.51 51.8807 131.018 52.509 129.26 52.509Z" fill="white"/>
<path d="M150.164 52.2037H139.206V24.8829H143.22V48.111H150.164V52.2037Z" fill="white"/>
<path d="M153.236 28.9936H148.956V24.8829H161.495V28.9936H157.25V52.2037H153.236V28.9936Z" fill="white"/>
<path d="M168.759 52.2037H164.728V24.8829H168.759V52.2037Z" fill="white"/>
<path d="M176.361 52.2037H172.347V24.847H178.101L181.848 44.4849L185.436 24.847H190.977V52.2037H186.963V35.025L183.482 52.2037H180.25L176.361 35.0609V52.2037Z" fill="white"/>
<path d="M199.502 45.921L198.525 52.2037H194.334L198.863 24.8829H204.386L208.844 52.2037H204.617L203.676 45.921H199.502ZM201.598 31.1297L200.106 41.9001H203.09L201.598 31.1297Z" fill="white"/>
<path d="M212.751 28.9936H208.471V24.8829H221.01V28.9936H216.765V52.2037H212.751V28.9936Z" fill="white"/>
<path d="M224.243 52.2037V24.847H235.681V28.9757H228.257V36.4611H233.674V40.6076H228.257V48.0751H235.681V52.2037H224.243Z" fill="white"/>
<path d="M253.955 24.8829C255.909 24.8829 257.454 25.5112 258.608 26.7857C259.674 27.9884 260.225 29.5321 260.225 31.399V35.3661C260.225 37.1611 259.621 38.7049 258.395 39.9794C257.17 41.2538 255.696 41.9001 253.973 41.9001H251.664V52.1857H247.668V24.8829H253.955ZM256.353 31.4708C256.353 30.7528 256.14 30.1783 255.731 29.7475C255.323 29.3167 254.754 29.0834 254.079 29.0834H251.664V37.8253H254.079C254.719 37.8253 255.252 37.5919 255.696 37.1252C256.14 36.6585 256.353 36.102 256.353 35.4379V31.4708Z" fill="white"/>
<path d="M263.422 52.2037V24.847H274.806V28.9757H267.418V36.4611H272.817V40.6076H267.418V48.0751H274.806V52.2037H263.422Z" fill="white"/>
<path d="M283.863 24.8829C286.101 24.8829 287.735 25.5112 288.783 26.7857C289.707 27.8986 290.151 29.4244 290.151 31.399V35.3661C290.151 37.2868 289.44 38.9382 288.002 40.2666L290.967 52.2037H286.652L284.236 41.918C284.13 41.918 284.005 41.918 283.881 41.918H281.572V52.2037H277.576V24.8829H283.863ZM286.261 31.4708C286.261 29.8911 285.497 29.0834 283.97 29.0834H281.555V37.8253H283.97C284.609 37.8253 285.142 37.5919 285.586 37.1252C286.03 36.6585 286.243 36.102 286.243 35.4379V31.4708H286.261Z" fill="white"/>
<path d="M298.41 52.2037H294.414V24.847H305.798V28.9757H298.41V36.4611H303.809V40.6076H298.41V52.2037Z" fill="white"/>
<path d="M314.874 24.524C316.65 24.524 318.142 25.1703 319.367 26.4448C320.61 27.7192 321.214 29.263 321.214 31.076V45.9929C321.214 47.8059 320.593 49.3676 319.349 50.6242C318.106 51.8986 316.614 52.5269 314.856 52.5269C313.098 52.5269 311.606 51.8807 310.363 50.6062C309.137 49.3317 308.516 47.788 308.516 45.975V31.058C308.516 29.245 309.137 27.7013 310.38 26.4268C311.659 25.1523 313.151 24.524 314.874 24.524ZM317.058 30.9862C317.058 30.3221 316.827 29.7836 316.401 29.3168C315.957 28.8681 315.407 28.6347 314.785 28.6347C314.146 28.6347 313.613 28.8681 313.151 29.3168C312.707 29.7836 312.476 30.3221 312.476 30.9862V45.957C312.476 46.6032 312.707 47.1597 313.151 47.6264C313.595 48.0752 314.146 48.3085 314.785 48.3085C315.424 48.3085 315.957 48.0752 316.401 47.6264C316.845 47.1597 317.058 46.6212 317.058 45.957V30.9862Z" fill="white"/>
<path d="M331.072 24.8829C333.309 24.8829 334.943 25.5112 335.991 26.7857C336.915 27.8986 337.359 29.4244 337.359 31.399V35.3661C337.359 37.2868 336.648 38.9382 335.21 40.2666L338.176 52.2037H333.842L331.427 41.918C331.32 41.918 331.196 41.918 331.072 41.918H328.763V52.2037H324.767V24.8829H331.072ZM333.469 31.4708C333.469 29.8911 332.705 29.0834 331.178 29.0834H328.763V37.8253H331.178C331.817 37.8253 332.35 37.5919 332.794 37.1252C333.238 36.6585 333.451 36.102 333.451 35.4379V31.4708H333.469Z" fill="white"/>
<path d="M345.616 52.2037H341.62V24.847H347.357L351.086 44.4849L354.656 24.847H360.18V52.2037H356.184V35.025L352.703 52.2037H349.488L345.616 35.0609V52.2037Z" fill="white"/>
<path d="M368.67 45.921L367.693 52.2037H363.52L368.031 24.8829H373.536L377.976 52.2037H373.767L372.826 45.921H368.67ZM370.766 31.1297L369.292 41.9001H372.258L370.766 31.1297Z" fill="white"/>
<path d="M385.826 24.847L391.137 43.2105V24.847H395.15V52.2037H390.852L385.347 34.6839V52.2037H381.351V24.847H385.826Z" fill="white"/>
<path d="M405.007 52.5449C403.249 52.5449 401.74 51.9166 400.514 50.6421C399.271 49.3677 398.667 47.8239 398.667 46.0289V31.1119C398.667 29.2989 399.289 27.7552 400.532 26.4807C401.775 25.2062 403.267 24.5779 405.025 24.5779C406.783 24.5779 408.275 25.2242 409.519 26.4987C410.744 27.7731 411.366 29.3169 411.366 31.1119V34.2353H407.227V31.0222C407.227 30.376 406.997 29.8016 406.553 29.3348C406.109 28.8681 405.558 28.6348 404.919 28.6348C404.279 28.6348 403.746 28.8681 403.302 29.3348C402.858 29.8016 402.628 30.358 402.628 31.0222V45.993C402.628 46.6392 402.858 47.1956 403.302 47.6624C403.746 48.1111 404.279 48.3445 404.919 48.3445C405.558 48.3445 406.109 48.1111 406.553 47.6624C406.997 47.1956 407.227 46.6571 407.227 45.993V42.2233H411.366V46.0468C411.366 47.8598 410.744 49.4036 409.501 50.6601C408.222 51.9166 406.748 52.5449 405.007 52.5449Z" fill="white"/>
<path d="M414.616 52.2037V24.847H426.001V28.9757H418.612V36.4611H424.011V40.6076H418.612V48.0751H426.001V52.2037H414.616Z" fill="white"/>
<path d="M199.771 71.3446L199.242 74.7026H196.961L199.424 60.0844H202.432L204.862 74.7026H202.564L202.052 71.3446H199.771ZM200.911 63.4424L200.102 69.2061H201.721L200.911 63.4424Z" fill="white"/>
<path d="M225.275 74.9029C224.316 74.9029 223.49 74.5687 222.812 73.8838C222.134 73.1988 221.804 72.3802 221.804 71.4112V63.4254C221.804 62.4565 222.134 61.6211 222.812 60.9529C223.49 60.2679 224.3 59.9338 225.258 59.9338C226.217 59.9338 227.044 60.2846 227.705 60.9696C228.382 61.6545 228.713 62.4732 228.713 63.4422V65.1128H226.449V63.392C226.449 63.0412 226.333 62.7405 226.085 62.4899C225.837 62.2393 225.539 62.1223 225.192 62.1223C224.845 62.1223 224.548 62.2393 224.316 62.4899C224.068 62.7405 223.953 63.0412 223.953 63.392V71.3945C223.953 71.7453 224.068 72.046 224.316 72.2799C224.564 72.5305 224.845 72.6475 225.192 72.6475C225.539 72.6475 225.837 72.5305 226.085 72.2799C226.333 72.0293 226.449 71.7453 226.449 71.3945V69.373H228.713V71.4112C228.713 72.3802 228.382 73.2155 227.705 73.8838C227.027 74.5687 226.217 74.9029 225.275 74.9029Z" fill="white"/>
<path d="M248.219 71.3446L247.69 74.7026H245.409L247.872 60.0844H250.88L253.31 74.7026H251.013L250.5 71.3446H248.219ZM249.36 63.4424L248.55 69.2061H250.17L249.36 63.4424Z" fill="white"/>
<path d="M277.444 71.2109C277.444 72.1798 277.113 72.9985 276.435 73.6834C275.758 74.3684 274.964 74.7025 274.006 74.7025H270.584V60.0676H274.022C274.981 60.0676 275.791 60.4184 276.452 61.1034C277.113 61.7883 277.46 62.607 277.46 63.5592V71.2109H277.444ZM272.766 72.5307H274.088C274.435 72.5307 274.733 72.397 274.964 72.1464C275.196 71.8958 275.328 71.5951 275.328 71.261V63.6094C275.328 63.2585 275.212 62.9578 274.964 62.7072C274.716 62.4566 274.435 62.3397 274.088 62.3397H272.766V72.5307Z" fill="white"/>
<path d="M294.816 74.7192V60.0676H301.032V62.2728H296.998V66.2824H299.941V68.5044H296.998V72.514H301.032V74.7192H294.816Z" fill="white"/>
<path d="M320.156 74.7192H317.974V60.0676H321.098L323.131 70.576L325.081 60.0676H328.106V74.7192H325.924V65.5139L324.023 74.7192H322.271L320.156 65.5473V74.7192Z" fill="white"/>
<path d="M348.223 68.5879L345.297 60.0676H347.71L349.314 65.3301L350.933 60.0676H353.347L350.405 68.5879V74.7192H348.223V68.5879Z" fill="white"/>
<path d="M140.248 67.7023L161.241 67.268L183.952 66.8169V67.7358V68.6546L161.241 68.2035L140.248 67.7692V67.7023Z" fill="white"/>
<path d="M408.654 67.7021L387.662 67.2677L364.967 66.8167V67.7355V68.6544L387.662 68.2033L408.654 67.7689V67.7021Z" fill="white"/>
</svg>
